<svg width="147" height="50" viewBox="0 0 147 50" fill="none" xmlns="http://www.w3.org/2000/svg">
<g clip-path="url(#clip0_5009_3492)" filter="url(#filter0_d_5009_3492)">
<path d="M104.783 21.2374C101.683 21.2374 98.1482 25.0778 98.1482 25.0778V22.4289C98.1482 22.0553 97.8197 21.7511 97.4129 21.7511H95.0319C94.6267 21.7511 94.2966 22.0539 94.2966 22.4289V33.8255C94.2966 34.1991 94.6251 34.5033 95.0319 34.5033H97.4129C97.8181 34.5033 98.1482 34.2005 98.1482 33.8255V28.1682C99.846 26.2395 101.975 23.8029 103.32 23.8029C105.042 23.8029 105.191 25.675 105.191 27.2159C105.191 28.4328 104.623 32.2676 104.384 33.8298C104.33 34.1849 104.629 34.5019 105.018 34.5019H107.353C107.658 34.5019 107.922 34.3024 107.98 34.025C108.257 32.726 108.992 29.0937 108.992 27.1225C108.992 24.6943 108.938 21.2374 104.784 21.2374H104.783Z" fill="white"/>
<path d="M74.7949 20.5526C75.858 20.5526 76.7199 19.7581 76.7199 18.7781C76.7199 17.7981 75.858 17.0037 74.7949 17.0037C73.7317 17.0037 72.8699 17.7981 72.8699 18.7781C72.8699 19.7581 73.7317 20.5526 74.7949 20.5526Z" fill="#F6DEBB"/>
<path d="M28.2125 32.0228C27.5125 27.1976 26.9676 21.2219 21.2018 21.2219C14.7329 21.2219 14.5134 26.159 16.9711 26.6372C19.2384 27.0787 19.6344 23.3303 21.6024 23.3303C22.9026 23.3303 23.1099 24.7114 22.1029 25.3C17.7263 27.8542 15 28.2433 15 31.4214C15 34.8939 19.9015 35.1132 21.67 33.6996C23.4369 32.2874 24.5636 30.2668 24.5636 30.2668C24.5636 30.2668 24.3103 32.3172 24.3103 33.0813C24.3103 33.8454 24.6127 34.4935 25.5108 34.4935H27.2807C27.8779 34.4935 28.5456 34.3053 28.2141 32.0214L28.2125 32.0228ZM23.9266 28.5277C23.3048 29.0711 21.6562 30.5611 20.4081 31.3903C18.3649 32.7487 17.0217 30.5229 18.7748 29.4192C19.4794 28.9763 21.716 27.765 22.7169 27.2584C23.9434 26.6372 24.7401 27.816 23.9266 28.5277Z" fill="white"/>
<path d="M75.9861 21.7355H73.6052C73.1991 21.7355 72.8699 22.0389 72.8699 22.4133V33.8085C72.8699 34.1828 73.1991 34.4863 73.6052 34.4863H75.9861C76.3922 34.4863 76.7214 34.1828 76.7214 33.8085V22.4133C76.7214 22.0389 76.3922 21.7355 75.9861 21.7355Z" fill="white"/>
<path d="M59.8676 21.7355H57.4866C57.0805 21.7355 56.7513 22.0389 56.7513 22.4133V33.8085C56.7513 34.1828 57.0805 34.4863 57.4866 34.4863H59.8676C60.2737 34.4863 60.6029 34.1828 60.6029 33.8085V22.4133C60.6029 22.0389 60.2737 21.7355 59.8676 21.7355Z" fill="white"/>
<path d="M40.2108 21.2218C37.8513 21.2218 35.2401 23.4476 34.1272 24.5089C34.1579 24.5924 34.1825 24.6801 34.1963 24.7707C34.316 25.6268 34.2577 26.4928 34.2822 27.3531C35.8327 25.6112 37.5842 23.7872 38.7494 23.7872C40.1985 23.7872 40.5331 25.1131 40.6037 26.4517V33.8099C40.6037 34.1835 40.9323 34.4877 41.3391 34.4877H43.6847C44.0899 34.4877 44.42 34.1849 44.42 33.8099C44.42 33.8099 44.423 27.5951 44.423 27.1069C44.423 24.6787 44.3693 21.2218 40.2154 21.2218H40.2108Z" fill="white"/>
<path d="M34.0535 21.7355H31.6726C31.2665 21.7355 30.9373 22.0389 30.9373 22.4133V33.8085C30.9373 34.1828 31.2665 34.4863 31.6726 34.4863H34.0535C34.4596 34.4863 34.7888 34.1828 34.7888 33.8085V22.4133C34.7888 22.0389 34.4596 21.7355 34.0535 21.7355Z" fill="white"/>
<path d="M50.02 21.2218C46.9207 21.2218 43.3853 25.0622 43.3853 25.0622V24.2316C43.0062 25.1981 42.5149 26.1405 42.1373 27.0843C41.9761 27.4847 41.8057 27.9092 41.7489 28.3352C41.7459 28.3635 41.752 28.6366 41.7489 28.6267C41.7505 28.638 41.7919 28.7399 41.7597 28.7073C42.0698 29.0059 42.7252 29.0498 43.3838 29.0101V28.1498C45.0816 26.2211 47.2108 23.7844 48.5555 23.7844C50.2779 23.7844 50.4268 25.6565 50.4268 27.1975C50.4268 28.4144 49.8588 32.2491 49.6193 33.8113C49.5656 34.1665 49.865 34.4835 50.2533 34.4835H52.5882C52.8937 34.4835 53.1577 34.2839 53.2161 34.0066C53.4924 32.7076 54.2277 29.0752 54.2277 27.1041C54.2277 24.6759 54.174 21.219 50.02 21.219V21.2218Z" fill="white"/>
<path d="M89.2247 28.648C90.9578 28.4456 91.9679 27.5216 91.9863 26.1448C92.0216 23.3473 89.0205 21.2219 85.7753 21.2219C81.8455 21.2219 79.2144 23.51 79.2144 28.1117C79.2144 32.3851 81.1394 35.0015 85.7753 35.0015C89.0359 35.0015 91.0253 33.7633 91.8666 31.3351C92.0554 30.7918 91.601 30.2371 90.9808 30.2371H89.1802C88.7304 30.2371 88.3527 30.537 88.2699 30.9432C87.9506 32.5167 87.226 33.319 85.7753 33.319C84.0284 33.319 83.313 32.32 83.1212 30.005C83.0766 29.4715 83.5326 29.0145 84.1144 29.0145C84.1144 29.0145 87.9536 28.798 89.2262 28.648H89.2247ZM85.7738 22.903C87.3565 22.903 88.1056 23.8369 88.3481 25.7741C88.4556 26.633 87.6942 26.8268 87.3012 26.8721C85.2196 27.1141 83.5955 27.1948 83.5955 27.1948C83.3284 27.2174 83.0981 27.0193 83.1089 26.7717C83.2133 24.3873 84.1313 22.9016 85.7738 22.9016V22.903Z" fill="white"/>
<path d="M129.238 28.648C130.971 28.4456 131.982 27.5216 132 26.1448C132.035 23.3473 129.034 21.2219 125.789 21.2219C121.859 21.2219 119.228 23.51 119.228 28.1117C119.228 32.3851 121.153 35.0015 125.789 35.0015C129.05 35.0015 131.039 33.7633 131.88 31.3351C132.069 30.7918 131.615 30.2371 130.995 30.2371H129.194C128.744 30.2371 128.366 30.537 128.284 30.9432C127.964 32.5167 127.24 33.319 125.789 33.319C124.042 33.319 123.327 32.32 123.135 30.005C123.09 29.4715 123.546 29.0145 124.128 29.0145C124.128 29.0145 127.967 28.798 129.24 28.648H129.238ZM125.787 22.903C127.37 22.903 128.119 23.8369 128.362 25.7741C128.469 26.633 127.708 26.8268 127.315 26.8721C125.233 27.1141 123.609 27.1948 123.609 27.1948C123.342 27.2174 123.112 27.0193 123.123 26.7717C123.227 24.3873 124.145 22.9016 125.787 22.9016V22.903Z" fill="white"/>
<path d="M117.902 32.1826C116.003 32.0807 114.858 31.2501 114.858 28.6606V20.2015H117.592C117.997 20.2015 118.327 19.8987 118.327 19.5237V18.5813C118.327 18.2092 118 17.9035 117.595 17.9035C115.817 17.9035 115.16 17.2866 114.945 15.5843C114.904 15.2532 114.6 15.0042 114.239 15.0042H111.718C111.325 15.0042 111.006 15.2985 111.006 15.6607C111.006 22.5406 111.008 28.4582 111.008 28.6578C111.008 32.5109 113.082 34.9985 117.564 34.9985C117.59 34.9985 117.698 34.9985 117.825 34.9985C118.104 34.9985 118.332 34.7876 118.332 34.5287V32.5944C118.332 32.3736 118.143 32.1939 117.903 32.1812L117.902 32.1826Z" fill="white"/>
<path d="M66.0433 21.2219C62.944 21.2219 60.5984 25.0623 60.5984 25.0623V15.6778C60.5984 15.3042 60.2699 15 59.8631 15H57.4821C57.0769 15 56.7468 15.3028 56.7468 15.6778C56.7468 15.6778 56.7468 21.6379 56.7499 29.4007C57.0247 29.4234 57.2319 29.5366 57.3731 29.6951C57.5313 29.8408 57.6341 30.046 57.6372 30.3106C57.6495 31.3252 57.7569 32.3228 57.9258 33.3161C58.262 33.418 58.5874 33.5496 58.9328 33.626C59.0341 33.2723 59.3411 32.9765 59.8538 32.9765C60.1916 32.9765 60.4387 33.1039 60.5968 33.2907V33.0034C61.3137 33.8878 62.4881 34.4524 63.8359 34.4524C68.3168 34.4524 70.3968 31.9648 70.3968 28.1116C70.3968 25.2858 70.1958 21.2219 66.0403 21.2219H66.0433ZM63.6394 32.7699C61.8495 32.7699 60.8547 31.8855 60.5999 29.4658V27.7862C60.5999 27.7862 63.2357 23.7873 64.5819 23.7873C66.3043 23.7873 66.5499 26.0797 66.5499 28.1116C66.5499 30.8908 65.7946 32.7699 63.6409 32.7699H63.6394Z" fill="white"/>
</g>
<defs>
<filter id="filter0_d_5009_3492" x="0" y="0" width="147" height="50" filterUnits="userSpaceOnUse" color-interpolation-filters="sRGB">
<feFlood flood-opacity="0" result="BackgroundImageFix"/>
<feColorMatrix in="SourceAlpha" type="matrix" values="0 0 0 0 0 0 0 0 0 0 0 0 0 0 0 0 0 0 127 0" result="hardAlpha"/>
<feOffset/>
<feGaussianBlur stdDeviation="7.5"/>
<feComposite in2="hardAlpha" operator="out"/>
<feColorMatrix type="matrix" values="0 0 0 0 0 0 0 0 0 0 0 0 0 0 0 0 0 0 0.25 0"/>
<feBlend mode="normal" in2="BackgroundImageFix" result="effect1_dropShadow_5009_3492"/>
<feBlend mode="normal" in="SourceGraphic" in2="effect1_dropShadow_5009_3492" result="shape"/>
</filter>
<clipPath id="clip0_5009_3492">
<rect width="117" height="20" fill="white" transform="translate(15 15)"/>
</clipPath>
</defs>
</svg>
