<svg width="16" height="13" viewBox="0 0 16 13" fill="none" xmlns="http://www.w3.org/2000/svg">
<path d="M13.7163 1.21078C13.8059 1.11939 13.9128 1.04678 14.0308 0.997216C14.1487 0.94765 14.2754 0.922119 14.4034 0.922119C14.5314 0.922119 14.6581 0.94765 14.776 0.997216C14.894 1.04678 15.0009 1.11939 15.0905 1.21078C15.4659 1.59009 15.4711 2.20303 15.1036 2.58891L7.34281 11.7633C7.2547 11.86 7.14777 11.9378 7.02857 11.9918C6.90937 12.0458 6.7804 12.075 6.64956 12.0774C6.51871 12.0799 6.38874 12.0556 6.2676 12.0061C6.14645 11.9566 6.03668 11.8829 5.945 11.7895L1.22262 7.00416C1.0405 6.81842 0.938477 6.56866 0.938477 6.30853C0.938477 6.0484 1.0405 5.79864 1.22262 5.61291C1.3122 5.52151 1.4191 5.44891 1.53708 5.39934C1.65506 5.34977 1.78175 5.32424 1.90972 5.32424C2.03769 5.32424 2.16437 5.34977 2.28235 5.39934C2.40033 5.44891 2.50724 5.52151 2.59681 5.61291L6.60256 9.67247L13.6901 1.23966C13.6982 1.22951 13.707 1.21987 13.7163 1.21078Z" fill="#333333"/>
</svg>
