<svg width="24" height="25" viewBox="0 0 24 25" fill="none" xmlns="http://www.w3.org/2000/svg">
<path d="M11.83 0.59375C5.31002 0.59375 0 5.90375 0 12.4238C0 18.9438 5.31002 24.2537 11.83 24.2537C18.35 24.2537 23.66 18.9438 23.66 12.4238C23.66 5.90375 18.35 0.59375 11.83 0.59375ZM11.83 23.2537C5.86002 23.2537 1 18.3938 1 12.4238C1 6.45375 5.86002 1.59375 11.83 1.59375C17.8 1.59375 22.66 6.45375 22.66 12.4238C22.66 18.3938 17.8 23.2537 11.83 23.2537Z" fill="#B6B1B1"/>
<path d="M11.83 8.71375C9.79002 8.71375 8.12 10.3737 8.12 12.4237C8.12 14.4737 9.78002 16.1337 11.83 16.1337C13.88 16.1337 15.54 14.4737 15.54 12.4237C15.54 10.3737 13.88 8.71375 11.83 8.71375ZM11.83 15.1337C10.34 15.1337 9.12 13.9237 9.12 12.4237C9.12 10.9237 10.34 9.71375 11.83 9.71375C13.32 9.71375 14.54 10.9337 14.54 12.4237C14.54 13.9137 13.33 15.1337 11.83 15.1337Z" fill="#B6B1B1"/>
<path d="M11.83 10.8938C10.98 10.8938 10.29 11.5838 10.29 12.4338C10.29 13.2838 10.98 13.9738 11.83 13.9738C12.68 13.9738 13.37 13.2838 13.37 12.4338C13.37 11.5838 12.68 10.8938 11.83 10.8938ZM11.83 12.9638C11.53 12.9638 11.29 12.7238 11.29 12.4238C11.29 12.1238 11.53 11.8838 11.83 11.8838C12.13 11.8838 12.37 12.1238 12.37 12.4238C12.37 12.7238 12.13 12.9638 11.83 12.9638Z" fill="#B6B1B1"/>
<path d="M16.51 6.61379C16.3 6.44379 15.98 6.47379 15.81 6.69379C15.64 6.90379 15.67 7.2238 15.89 7.3938C16.56 7.9338 17.11 8.5938 17.52 9.3438C17.61 9.5138 17.78 9.6038 17.96 9.6038C18.04 9.6038 18.12 9.58379 18.2 9.54379C18.44 9.41379 18.53 9.10379 18.4 8.86379C17.93 7.99379 17.29 7.2338 16.52 6.6038L16.51 6.61379Z" fill="#B6B1B1"/>
<path d="M20.08 8.02373C19.5 6.93373 18.71 5.97373 17.75 5.19373C17.54 5.01373 17.2201 5.05373 17.0501 5.26373C16.8701 5.47373 16.91 5.79374 17.12 5.96374C17.98 6.66374 18.68 7.52373 19.2 8.49373C19.29 8.66373 19.46 8.75373 19.64 8.75373C19.72 8.75373 19.8 8.73373 19.88 8.69373C20.12 8.56373 20.2201 8.26373 20.0901 8.01373L20.08 8.02373Z" fill="#B6B1B1"/>
<path d="M6.15001 15.5037C6.02001 15.2637 5.71002 15.1737 5.47002 15.3037C5.23002 15.4337 5.14001 15.7437 5.27001 15.9837C5.74001 16.8537 6.38001 17.6137 7.15001 18.2437C7.24001 18.3137 7.35001 18.3537 7.46001 18.3537C7.61001 18.3537 7.75002 18.2937 7.85002 18.1637C8.02002 17.9537 7.99001 17.6337 7.77001 17.4637C7.10001 16.9237 6.55 16.2637 6.14 15.5137L6.15001 15.5037Z" fill="#B6B1B1"/>
<path d="M4.47005 16.3538C4.34005 16.1138 4.04005 16.0138 3.79005 16.1438C3.55005 16.2738 3.45003 16.5738 3.58003 16.8238C4.16003 17.9138 4.95005 18.8738 5.91005 19.6538C6.00005 19.7338 6.12005 19.7638 6.23005 19.7638C6.38005 19.7638 6.52001 19.7038 6.62001 19.5838C6.80001 19.3738 6.76006 19.0538 6.55006 18.8838C5.69006 18.1838 4.99005 17.3238 4.47005 16.3538Z" fill="#B6B1B1"/>
</svg>
