<svg width="32" height="23" viewBox="0 0 32 23" fill="none" xmlns="http://www.w3.org/2000/svg">
<path d="M29.73 18.95C29.75 18.86 29.78 18.77 29.77 18.68C29.44 11.3 24.36 5.38 17.85 4.29C18.09 3.96 18.24 3.56 18.24 3.12V1.97C18.24 0.879999 17.35 0 16.27 0H15.12C14.03 0 13.15 0.889999 13.15 1.97V3.12C13.15 3.56 13.3 3.96 13.54 4.29C7.02001 5.38 1.95 11.3 1.62 18.68C1.62 18.77 1.65 18.86 1.66 18.95C0.740004 18.96 0 19.71 0 20.63V21.09C0 22.02 0.75 22.77 1.68 22.77H29.72C30.65 22.77 31.4 22.02 31.4 21.09V20.63C31.4 19.71 30.66 18.96 29.74 18.95H29.73ZM14.15 1.97C14.15 1.43 14.59 1 15.12 1H16.27C16.81 1 17.24 1.44 17.24 1.97V3.12C17.24 3.66 16.8 4.09 16.27 4.09H15.12C14.58 4.09 14.15 3.65 14.15 3.12V1.97ZM15.7 5.09C22.69 5.09 28.43 11.08 28.78 18.72C28.78 18.8 28.74 18.85 28.72 18.88C28.7 18.9 28.65 18.94 28.57 18.94H2.83C2.76 18.94 2.71 18.91 2.68 18.88C2.66 18.86 2.62 18.8 2.62 18.72C2.97 11.08 8.71 5.09 15.7 5.09ZM30.4 21.08C30.4 21.46 30.09 21.76 29.72 21.76H1.68C1.3 21.76 1 21.45 1 21.08V20.62C1 20.24 1.31 19.94 1.68 19.94H29.72C30.1 19.94 30.4 20.25 30.4 20.62V21.08Z" fill="#B6B1B1"/>
</svg>
