<svg width="36" height="35" viewBox="0 0 36 35" fill="none" xmlns="http://www.w3.org/2000/svg">
<path d="M7.38393 8.74C6.84393 8.2 6.08401 7.99 5.34401 8.17C4.60401 8.35 4.02396 8.89 3.79396 9.61L0.104021 21.19C-0.145979 21.96 0.0639283 22.8 0.633928 23.38C1.04393 23.79 1.59395 24.01 2.15395 24.01C2.37395 24.01 2.59398 23.98 2.81398 23.91L14.3939 20.22C15.1139 19.99 15.654 19.41 15.834 18.67C16.014 17.93 15.8039 17.17 15.2639 16.63L7.37392 8.74H7.38393ZM6.454 21.7L2.31398 17.56L3.71401 13.17L10.844 20.3L6.454 21.7ZM2.51393 22.95C2.09393 23.08 1.65401 22.98 1.34401 22.67C1.03401 22.36 0.923972 21.92 1.05397 21.5L1.96401 18.64L5.37392 22.05L2.51393 22.96V22.95ZM14.8739 18.43C14.7739 18.83 14.484 19.14 14.094 19.26L11.914 19.96L4.05397 12.1L4.75392 9.92C4.87392 9.53 5.184 9.24 5.584 9.14C5.674 9.12 5.77403 9.11 5.86403 9.11C6.16403 9.11 6.46398 9.23 6.68398 9.45L14.574 17.34C14.864 17.63 14.9739 18.04 14.8839 18.44L14.8739 18.43Z" fill="#B6B1B1"/>
<path d="M18.734 3.18C19.164 3.18 19.564 3.01 19.864 2.71C20.484 2.09 20.484 1.08 19.864 0.45C19.264 -0.15 18.204 -0.15 17.604 0.45C17.304 0.75 17.1339 1.15 17.1339 1.58C17.1339 2.01 17.304 2.41 17.604 2.71C17.904 3.01 18.304 3.18 18.734 3.18ZM18.314 1.16C18.424 1.05 18.574 0.99 18.734 0.99C18.894 0.99 19.0439 1.05 19.1539 1.16C19.3839 1.39 19.3839 1.77 19.1539 2C18.9339 2.23 18.534 2.23 18.314 2C18.204 1.89 18.1439 1.74 18.1439 1.58C18.1439 1.42 18.204 1.27 18.314 1.16Z" fill="#B6B1B1"/>
<path d="M11.3739 3.64996C11.7839 3.64996 12.1939 3.48996 12.5039 3.17996C13.1239 2.55996 13.1239 1.54996 12.5039 0.919956C11.8839 0.299956 10.8741 0.299956 10.2441 0.919956C9.62405 1.53996 9.62405 2.54996 10.2441 3.17996C10.5541 3.48996 10.9639 3.64996 11.3739 3.64996ZM10.954 1.62996C11.074 1.50996 11.2239 1.45996 11.3739 1.45996C11.5239 1.45996 11.684 1.51996 11.794 1.62996C12.024 1.85996 12.024 2.23996 11.794 2.46996C11.564 2.69996 11.184 2.69996 10.954 2.46996C10.724 2.23996 10.724 1.85996 10.954 1.62996Z" fill="#B6B1B1"/>
<path d="M10.2839 10.22C10.4139 10.22 10.5439 10.17 10.6339 10.07C13.3239 7.38004 12.5839 4.67004 12.5539 4.56004C12.4739 4.30004 12.2039 4.14004 11.9439 4.22004C11.6839 4.29004 11.524 4.57004 11.594 4.83004C11.624 4.92004 12.1839 7.11004 9.92393 9.36004C9.72393 9.56004 9.72393 9.87004 9.92393 10.07C10.0239 10.17 10.1539 10.22 10.2739 10.22H10.2839Z" fill="#B6B1B1"/>
<path d="M22.174 14.45C22.604 14.45 23.004 14.28 23.304 13.98C23.924 13.36 23.924 12.35 23.304 11.72C22.704 11.12 21.654 11.12 21.044 11.72C20.424 12.34 20.424 13.35 21.044 13.98C21.344 14.28 21.744 14.45 22.174 14.45ZM21.7539 12.43C21.8639 12.32 22.014 12.26 22.174 12.26C22.334 12.26 22.484 12.32 22.594 12.43C22.824 12.66 22.824 13.04 22.594 13.27C22.374 13.5 21.9739 13.5 21.7539 13.27C21.5239 13.04 21.5239 12.66 21.7539 12.43Z" fill="#B6B1B1"/>
<path d="M14.4239 14.36C14.5539 14.36 14.6839 14.31 14.7739 14.21C17.0239 11.96 19.2039 12.52 19.3039 12.54C19.5639 12.61 19.8439 12.46 19.9239 12.2C20.0039 11.93 19.844 11.66 19.584 11.58C19.464 11.55 16.754 10.81 14.074 13.5C13.874 13.7 13.874 14.01 14.074 14.21C14.174 14.31 14.3039 14.36 14.4239 14.36Z" fill="#B6B1B1"/>
<path d="M15.7939 8.70002C15.9239 8.70002 16.0539 8.65002 16.1439 8.55002C18.2639 6.43002 18.6239 4.51002 18.6439 4.43002C18.6939 4.16002 18.514 3.90002 18.244 3.85002C17.974 3.80002 17.7139 3.98002 17.6639 4.25002C17.6639 4.27002 17.3439 5.94002 15.4439 7.84002C15.2439 8.04002 15.2439 8.35002 15.4439 8.55002C15.5439 8.65002 15.6739 8.70002 15.7939 8.70002Z" fill="#B6B1B1"/>
<path d="M34.114 23.31V23.25C34.114 22.42 33.444 21.75 32.614 21.75H31.434C30.734 21.75 30.144 22.24 29.984 22.9H20.1639C18.7839 22.9 17.6639 24.02 17.6639 25.4V31.7C17.6639 33.08 18.7839 34.2 20.1639 34.2H32.7539C34.1339 34.2 35.2539 33.08 35.2539 31.7V25.4C35.2539 24.53 34.8039 23.76 34.1239 23.31H34.114ZM31.434 22.75H32.614C32.754 22.75 32.874 22.81 32.964 22.9H31.084C31.174 22.81 31.294 22.75 31.434 22.75ZM34.244 31.7C34.244 32.53 33.574 33.2 32.744 33.2H20.1539C19.3239 33.2 18.6539 32.53 18.6539 31.7V25.4C18.6539 24.57 19.3239 23.9 20.1539 23.9H32.744C33.574 23.9 34.244 24.57 34.244 25.4V31.7Z" fill="#B6B1B1"/>
<path d="M26.454 24.99C24.484 24.99 22.8839 26.59 22.8839 28.56C22.8839 30.53 24.484 32.13 26.454 32.13C28.424 32.13 30.0239 30.53 30.0239 28.56C30.0239 26.59 28.424 24.99 26.454 24.99ZM26.454 31.12C25.034 31.12 23.8839 29.97 23.8839 28.55C23.8839 27.13 25.034 25.98 26.454 25.98C27.874 25.98 29.0239 27.13 29.0239 28.55C29.0239 29.97 27.874 31.12 26.454 31.12Z" fill="#B6B1B1"/>
<path d="M21.824 24.39H19.954C19.674 24.39 19.454 24.61 19.454 24.89C19.454 25.17 19.674 25.39 19.954 25.39H21.824C22.104 25.39 22.324 25.17 22.324 24.89C22.324 24.61 22.104 24.39 21.824 24.39Z" fill="#B6B1B1"/>
</svg>
