<svg width="23" height="24" viewBox="0 0 23 24" fill="none" xmlns="http://www.w3.org/2000/svg">
<path d="M11.4987 9.1293C12.0022 9.1293 12.5007 9.22847 12.9659 9.42113C13.431 9.6138 13.8536 9.8962 14.2096 10.2522C14.5656 10.6082 14.848 11.0308 15.0407 11.496C15.2334 11.9611 15.3325 12.4597 15.3325 12.9631C15.3325 13.4666 15.2334 13.9651 15.0407 14.4302C14.848 14.8954 14.5656 15.318 14.2096 15.674C13.8536 16.03 13.431 16.3124 12.9659 16.5051C12.5007 16.6978 12.0022 16.7969 11.4987 16.7969C10.4819 16.7969 9.5068 16.393 8.78782 15.674C8.06884 14.955 7.66492 13.9799 7.66492 12.9631C7.66492 11.9463 8.06884 10.9712 8.78782 10.2522C9.5068 9.53322 10.4819 9.1293 11.4987 9.1293ZM11.4987 5.7713C15.9205 5.7713 19.7356 8.79005 20.795 13.0206C20.8204 13.113 20.827 13.2095 20.8145 13.3045C20.802 13.3994 20.7706 13.491 20.7223 13.5736C20.6739 13.6563 20.6095 13.7285 20.5328 13.7859C20.4562 13.8434 20.3688 13.8849 20.2759 13.9081C20.1829 13.9313 20.0863 13.9356 19.9916 13.9209C19.897 13.9062 19.8062 13.8728 19.7247 13.8225C19.6431 13.7722 19.5725 13.7062 19.5168 13.6282C19.4612 13.5502 19.4217 13.4619 19.4007 13.3685C18.9559 11.6094 17.9368 10.049 16.5049 8.93453C15.0731 7.82006 13.3102 7.21525 11.4958 7.21591C9.6813 7.21657 7.91893 7.82266 6.48787 8.93817C5.0568 10.0537 4.03888 11.6148 3.59536 13.3742C3.54794 13.558 3.4298 13.7155 3.26671 13.8124C3.10362 13.9094 2.9088 13.9379 2.72476 13.8918C2.54071 13.8457 2.38236 13.7287 2.28424 13.5663C2.18612 13.4039 2.15619 13.2093 2.20098 13.0249C2.72092 10.9527 3.91815 9.11355 5.60263 7.79941C7.2871 6.48527 9.36228 5.77146 11.4987 5.7713Z" fill="#736E6E"/>
</svg>
