<svg width="9" height="17" viewBox="0 0 9 17" fill="none" xmlns="http://www.w3.org/2000/svg">
<path d="M2.66838 17.0004C2.66556 16.9285 2.65992 16.8571 2.65992 16.7852C2.65951 14.3511 2.65992 11.9174 2.65992 9.48333C2.65992 9.41227 2.65992 9.34161 2.65992 9.24963H0V6.22694H2.65951C2.65951 6.14207 2.65951 6.07772 2.65951 6.01337C2.66274 5.22227 2.64258 4.43038 2.67605 3.64086C2.71637 2.6887 3.0039 1.81509 3.69025 1.10412C4.21247 0.5633 4.86415 0.256966 5.5997 0.103009C6.19733 -0.0221307 6.80222 -0.00752448 7.40591 0.0153717C7.89668 0.0339255 8.38664 0.0749806 8.877 0.107351C8.91531 0.10972 8.95362 0.120773 8.9996 0.129063V2.8237C8.94112 2.8237 8.88144 2.82291 8.82216 2.8237C8.21808 2.83239 7.61278 2.8237 7.0095 2.8545C6.29653 2.89081 5.89287 3.27847 5.86343 3.98075C5.83278 4.70948 5.85294 5.44058 5.85133 6.17049C5.85133 6.18036 5.85899 6.19023 5.87069 6.21905H8.89918C8.7657 7.23516 8.63505 8.22956 8.50197 9.24134H5.86101C5.85536 9.30608 5.8473 9.35345 5.8473 9.40082C5.84689 11.8957 5.84689 14.3902 5.8473 16.8851C5.8473 16.9234 5.85294 16.9621 5.85577 17.0004H2.66838Z" fill="#333333"/>
</svg>
