<svg width="23" height="23" viewBox="0 0 23 23" fill="none" xmlns="http://www.w3.org/2000/svg">
<path d="M17.6292 11.7712L17.2891 12.1412L17.6292 11.6712C21.0592 8.56118 22.7491 5.27118 22.1591 2.89118C21.8791 1.76118 21.0991 0.981178 19.9691 0.701178C17.5891 0.101178 14.2991 1.79118 11.1891 5.23118L11.5591 5.57118L11.0891 5.23118C7.97912 1.80118 4.68909 0.101178 2.30909 0.701178C1.17909 0.981178 0.399152 1.76118 0.119152 2.89118C-0.480848 5.28118 1.20906 8.56118 4.64906 11.6712L4.98915 11.3012L4.64906 11.7712C1.21906 14.8812 -0.470848 18.1712 0.119152 20.5512C0.399152 21.6812 1.17909 22.4612 2.30909 22.7412C4.69909 23.3412 7.97912 21.6512 11.0891 18.2112L10.7191 17.8712L11.1891 18.2112C13.8891 21.1912 16.7191 22.8512 18.9791 22.8512C19.3291 22.8512 19.6591 22.8112 19.9691 22.7312C21.0991 22.4512 21.8791 21.6712 22.1591 20.5412C22.7591 18.1512 21.0692 14.8712 17.6292 11.7612V11.7712ZM21.1891 20.3112C20.9991 21.0712 20.4891 21.5812 19.7291 21.7712C18.1691 22.1612 15.2991 21.2612 11.9291 17.5412C11.5191 17.0912 10.7491 17.0912 10.3491 17.5412C6.97913 21.2512 4.10908 22.1612 2.54908 21.7712C1.78908 21.5812 1.27912 21.0712 1.08912 20.3112C0.699122 18.7512 1.5991 15.8812 5.3191 12.5112C5.5391 12.3112 5.66908 12.0212 5.66908 11.7212C5.66908 11.4212 5.5391 11.1312 5.3191 10.9312C1.6091 7.56118 0.699122 4.69118 1.08912 3.13118C1.27912 2.37118 1.78908 1.86118 2.54908 1.67118C2.76908 1.62118 3.00906 1.59118 3.27906 1.59118C4.91906 1.59118 7.44913 2.71118 10.3491 5.90118C10.7591 6.35118 11.5291 6.35118 11.9291 5.90118C15.2991 2.19118 18.1691 1.28118 19.7291 1.67118C20.4891 1.86118 20.9991 2.37118 21.1891 3.13118C21.5791 4.69118 20.6791 7.56118 16.9591 10.9312C16.7391 11.1312 16.6091 11.4212 16.6091 11.7212C16.6091 12.0212 16.7391 12.3112 16.9591 12.5112C20.6691 15.8812 21.5791 18.7512 21.1891 20.3112Z" fill="#B6B1B1"/>
<path d="M11.1292 9.05115C9.65915 9.05115 8.45911 10.2512 8.45911 11.7212C8.45911 13.1912 9.65915 14.3912 11.1292 14.3912C12.5992 14.3912 13.7991 13.1912 13.7991 11.7212C13.7991 10.2512 12.5992 9.05115 11.1292 9.05115ZM11.1292 13.3912C10.2092 13.3912 9.45911 12.6412 9.45911 11.7212C9.45911 10.8012 10.2092 10.0511 11.1292 10.0511C12.0492 10.0511 12.7991 10.8012 12.7991 11.7212C12.7991 12.6412 12.0492 13.3912 11.1292 13.3912Z" fill="#B6B1B1"/>
</svg>
