<svg width="130" height="27" viewBox="0 0 130 27" fill="none" xmlns="http://www.w3.org/2000/svg">
<path d="M21.0696 7.48418C21.0696 5.84341 19.7507 4.74048 18.1249 4.74048H14.4268C12.8009 4.74048 11.4821 5.84341 11.4821 7.48418V10.1371C11.4821 11.332 12.2354 16.0432 12.2354 16.0432C12.2354 16.0432 11.4821 21.2084 11.4821 22.4202V24.2562C11.4821 25.897 12.8009 26.9999 14.4268 26.9999H18.1249C19.7507 26.9999 21.0696 25.897 21.0696 24.2562V22.4293C21.0696 21.2345 20.3163 16.0432 20.3163 16.0432C20.3163 16.0432 21.0696 11.2911 21.0696 10.0872V7.48418ZM17.8685 23.0988C17.8685 23.9873 17.1545 24.7067 16.2753 24.7067C15.3949 24.7067 14.682 23.9861 14.682 23.0988V8.64158C14.682 7.75311 15.396 7.03371 16.2753 7.03371C17.1556 7.03371 17.8685 7.75424 17.8685 8.64158V23.0977V23.0988Z" fill="white"/>
<path d="M44.938 7.48418C44.938 5.84341 43.6191 4.74048 41.9933 4.74048H38.2952C36.6694 4.74048 35.3505 5.84341 35.3505 7.48418V10.1371C35.3505 11.332 36.1038 16.0432 36.1038 16.0432C36.1038 16.0432 35.3505 21.2084 35.3505 22.4202V24.2562C35.3505 25.897 36.6694 26.9999 38.2952 26.9999H41.9933C43.6191 26.9999 44.938 25.897 44.938 24.2562V22.4293C44.938 21.2345 44.1847 16.0432 44.1847 16.0432C44.1847 16.0432 44.938 11.2911 44.938 10.0872V7.48418ZM41.7369 23.0988C41.7369 23.9873 41.0229 24.7067 40.1437 24.7067C39.2633 24.7067 38.5504 23.9861 38.5504 23.0988V8.64158C38.5504 7.75311 39.2644 7.03371 40.1437 7.03371C41.0241 7.03371 41.7369 7.75424 41.7369 8.64158V23.0977V23.0988Z" fill="white"/>
<path d="M33.4859 6.10779C33.4859 5.35322 32.8799 4.74048 32.131 4.74048H24.5741C23.8264 4.74048 23.2192 5.35208 23.2192 6.10779V7.609C23.2192 8.16954 23.7938 8.54173 24.2986 8.30798L26.7149 6.98151V26.057C26.7149 26.5778 27.1332 26.9999 27.6493 26.9999H28.9817C29.4977 26.9999 29.916 26.5778 29.916 26.057V6.98151L32.4076 8.30798C32.9125 8.54173 33.487 8.16954 33.487 7.609V6.10779H33.4859Z" fill="white"/>
<path d="M6.91265 4.74048H2.67601C1.19746 4.74048 0 5.94893 0 7.44107V26.2975C0 26.6856 0.311451 26.9999 0.695987 26.9999H2.5051C2.88964 26.9999 3.20109 26.6856 3.20109 26.2975L3.2247 18.3705H5.80964C6.55735 18.3705 7.16451 17.7589 7.16451 17.0032V15.502C7.16451 14.9414 6.58995 14.5693 6.08511 14.803L3.2247 16.1249L3.20109 8.64158C3.20109 7.75311 3.91507 7.03371 4.79433 7.03371C5.45434 7.03371 6.02439 7.43766 6.26276 8.01636C6.8182 9.36438 7.14202 10.5762 7.14202 10.5762H8.96913C9.31094 10.5762 9.58866 10.296 9.58866 9.95102V7.44107C9.58866 5.95007 8.3912 4.74048 6.91265 4.74048Z" fill="white"/>
<path d="M62.4456 4.74048H60.325C59.9056 4.74048 59.5323 5.01054 59.3974 5.41109L56.7158 13.3585L54.0341 5.41109C53.8992 5.01054 53.5259 4.74048 53.1065 4.74048H50.9859C50.6925 4.74048 50.4901 5.0389 50.5958 5.31464L55.1517 17.1496H55.1158V26.4087C55.1158 26.7355 55.3777 26.9999 55.7016 26.9999H57.7311C58.0549 26.9999 58.3169 26.7355 58.3169 26.4087V17.1496H58.2809L62.8357 5.31464C62.9425 5.03777 62.7401 4.74048 62.4456 4.74048Z" fill="white"/>
<path d="M130 7.3565C130 5.71572 128.681 4.61279 127.055 4.61279H123.357C121.731 4.61279 120.412 5.71572 120.412 7.3565V10.0094C120.412 11.2043 121.166 15.9155 121.166 15.9155C121.166 15.9155 120.412 21.0807 120.412 22.2926V24.1285C120.412 25.7693 121.731 26.8722 123.357 26.8722H127.055C128.681 26.8722 130 25.7693 130 24.1285V22.3016C130 21.1068 129.247 15.9155 129.247 15.9155C129.247 15.9155 130 11.1634 130 9.9595V7.3565ZM126.799 22.9711C126.799 23.8596 126.085 24.579 125.206 24.579C124.325 24.579 123.612 23.8584 123.612 22.9711V8.51503C123.612 7.62656 124.326 6.90716 125.206 6.90716C126.086 6.90716 126.799 7.62769 126.799 8.51503V22.9711Z" fill="white"/>
<path d="M92.2196 0.652629C92.1713 0.00358057 91.3381 -0.232437 90.9333 0.27364L88.7847 2.95948H91.3089C91.8137 2.95948 92.2219 2.54644 92.2219 2.0381V0.711634C92.2219 0.691209 92.2219 0.671919 92.2196 0.652629Z" fill="white"/>
<path d="M90.8672 4.61279H83.3103C82.5626 4.61279 81.9554 5.2244 81.9554 5.98011V7.48132C81.9554 8.04186 82.53 8.41404 83.0348 8.18029L85.5265 6.85383V24.63L83.0348 23.3036C82.53 23.0698 81.9554 23.442 81.9554 24.0026V25.5038C81.9554 26.2583 82.5615 26.8711 83.3103 26.8711H90.8672C91.6149 26.8711 92.2221 26.2595 92.2221 25.5038V24.0026C92.2221 23.442 91.6475 23.0698 91.1427 23.3036L88.7264 24.63V6.85383L91.1427 8.18029C91.6475 8.41404 92.2221 8.04186 92.2221 7.48132V5.98011C92.2221 5.22553 91.6161 4.61279 90.8672 4.61279Z" fill="white"/>
<path d="M104.532 7.3565C104.532 5.84167 103.314 4.61279 101.813 4.61279H95.4198C95.1567 4.61279 94.9442 4.82839 94.9442 5.09277V26.3911C94.9442 26.6566 95.1578 26.8711 95.4198 26.8711H101.587C103.213 26.8711 104.532 25.5401 104.532 23.8993V7.35536V7.3565ZM101.331 22.9711C101.331 23.8596 100.617 24.579 99.7374 24.579H98.54C98.3207 24.579 98.1442 24.3997 98.1442 24.1796V7.30657C98.1442 7.0853 98.3218 6.90716 98.54 6.90716H99.7374C100.618 6.90716 101.331 7.62769 101.331 8.51503V22.9711Z" fill="white"/>
<path d="M114.224 6.96202L116.858 8.17956C117.363 8.41331 117.938 8.04112 117.938 7.48058V5.97937C117.938 5.2248 117.331 4.61206 116.583 4.61206H108.793C108.548 4.61206 108.349 4.8129 108.349 5.06027V26.4244C108.349 26.6718 108.548 26.8726 108.793 26.8726H116.583C117.33 26.8726 117.938 26.261 117.938 25.5053V24.0041C117.938 23.4435 117.363 23.0714 116.858 23.3051L114.224 24.5226C114.07 24.5941 113.902 24.6304 113.734 24.6304H111.551V17.6305C111.551 17.6305 113.508 17.6225 114.16 17.6214C114.907 17.6203 115.515 17.0098 115.515 16.2541V14.7529C115.515 14.1923 114.94 13.8202 114.435 14.0539L111.575 15.3758L111.551 6.85309H113.734C113.903 6.85309 114.07 6.88941 114.224 6.96089V6.96202Z" fill="white"/>
<path d="M76.6597 25.5427L80.089 5.12495C80.1329 4.85602 79.9271 4.6132 79.6573 4.6132H77.2994C77.0858 4.6132 76.9025 4.76978 76.8677 4.98311L74.2389 23.2552L71.6112 4.98197C71.5764 4.76865 71.3942 4.61206 71.1795 4.61206H68.8228C68.5529 4.61206 68.3483 4.85602 68.391 5.12381L71.8204 25.5416C71.9665 26.4392 72.4343 26.8703 73.336 26.8703H75.144C76.0458 26.8703 76.5135 26.4392 76.6597 25.5416V25.5427Z" fill="white"/>
</svg>
