<svg width="27" height="27" viewBox="0 0 27 27" fill="none" xmlns="http://www.w3.org/2000/svg">
<path d="M26.002 11.0029H24.975V10.95H13.5V16.05H20.7057C19.6544 19.0188 16.8297 21.15 13.5 21.15C9.27529 21.15 5.85 17.7247 5.85 13.5C5.85 9.27529 9.27529 5.85 13.5 5.85C15.4501 5.85 17.2243 6.58567 18.5751 7.78736L22.1815 4.18102C19.9043 2.05879 16.8583 0.75 13.5 0.75C6.45881 0.75 0.75 6.45881 0.75 13.5C0.75 20.5412 6.45881 26.25 13.5 26.25C20.5412 26.25 26.25 20.5412 26.25 13.5C26.25 12.6451 26.162 11.8106 26.002 11.0029Z" fill="#FFC107"/>
<path d="M2.22266 7.56551L6.41167 10.6376C7.54514 7.83135 10.2902 5.85 13.5026 5.85C15.4527 5.85 17.2269 6.58567 18.5777 7.78736L22.1841 4.18102C19.9069 2.05879 16.8609 0.75 13.5026 0.75C8.60531 0.75 4.35828 3.51484 2.22266 7.56551Z" fill="#FF3D00"/>
<path d="M13.4981 26.2525C16.7915 26.2525 19.7839 24.9921 22.0464 22.9426L18.1003 19.6034C16.7772 20.6096 15.1604 21.1538 13.4981 21.1525C10.1819 21.1525 7.36603 19.0379 6.30523 16.0869L2.14746 19.2903C4.25759 23.4194 8.54286 26.2525 13.4981 26.2525Z" fill="#4CAF50"/>
<path d="M26.002 11.0005H24.975V10.9476H13.5V16.0476H20.7057C20.2028 17.4606 19.297 18.6953 18.1002 19.5991L18.1021 19.5979L22.0482 22.9371C21.769 23.1908 26.25 19.8726 26.25 13.4976C26.25 12.6427 26.162 11.8083 26.002 11.0005Z" fill="#1976D2"/>
</svg>
