<svg width="87" height="52" viewBox="0 0 87 52" fill="none" xmlns="http://www.w3.org/2000/svg">
<path d="M38.6723 2.86057C38.3023 2.01057 37.4624 1.46057 36.5424 1.46057C36.2224 1.46057 35.9125 1.53057 35.6125 1.65057L30.3922 3.92057C29.2222 4.43057 28.6823 5.80057 29.1923 6.98057L39.4523 30.5206C39.8223 31.3706 40.6624 31.9206 41.5824 31.9206C41.9024 31.9206 42.2124 31.8506 42.5124 31.7306L47.7323 29.4606C48.3023 29.2106 48.7423 28.7606 48.9623 28.1806C49.1923 27.6006 49.1823 26.9706 48.9323 26.4006L38.6723 2.86057ZM47.3324 28.5406L42.1125 30.8106C41.9425 30.8906 41.7624 30.9206 41.5824 30.9206C41.0724 30.9206 40.5822 30.6206 40.3722 30.1206L30.1125 6.58057C29.8225 5.91057 30.1224 5.13057 30.7924 4.84057L36.0124 2.57057C36.1824 2.49057 36.3624 2.46057 36.5424 2.46057C37.0524 2.46057 37.5424 2.76057 37.7524 3.26057L48.0124 26.8006C48.3024 27.4706 48.0024 28.2506 47.3324 28.5406Z" fill="#B6B1B1"/>
<path d="M34.5024 11.6405L38.4723 9.9105C39.1823 9.6005 39.5123 8.7605 39.2023 8.0505L37.4723 4.0805C37.1623 3.3705 36.3325 3.0405 35.6125 3.3505L31.6423 5.0805C30.9323 5.3905 30.6023 6.2305 30.9123 6.9405L32.6423 10.9105C32.7923 11.2605 33.0723 11.5205 33.4223 11.6605C33.5923 11.7305 33.7623 11.7605 33.9423 11.7605C34.1323 11.7605 34.3224 11.7205 34.5024 11.6405ZM33.5624 10.5105L31.8324 6.5405C31.7424 6.3305 31.8324 6.0905 32.0424 6.0005L36.0124 4.2705C36.0624 4.2505 36.1223 4.2405 36.1723 4.2405C36.3323 4.2405 36.4824 4.3305 36.5524 4.4905L38.2824 8.4605C38.3724 8.6705 38.2824 8.9105 38.0724 9.0005L34.1025 10.7305C34.0025 10.7705 33.8924 10.7805 33.7824 10.7305C33.6824 10.6905 33.6024 10.6105 33.5524 10.5105H33.5624Z" fill="#B6B1B1"/>
<path d="M37.4625 18.4305L41.4325 16.7005C41.7825 16.5505 42.0425 16.2705 42.1825 15.9205C42.3225 15.5705 42.3125 15.1805 42.1625 14.8405L40.4325 10.8705C40.2825 10.5205 40.0025 10.2605 39.6525 10.1205C39.3025 9.98052 38.9226 9.99053 38.5726 10.1405L34.6027 11.8705C33.8927 12.1805 33.5624 13.0205 33.8724 13.7305L35.6027 17.7005C35.8327 18.2305 36.3525 18.5505 36.9025 18.5505C37.0925 18.5505 37.2825 18.5105 37.4625 18.4305ZM36.5226 17.3005L34.7926 13.3305C34.7026 13.1205 34.7926 12.8805 35.0026 12.7905L38.9725 11.0605C39.0225 11.0405 39.0824 11.0305 39.1324 11.0305C39.1824 11.0305 39.2326 11.0305 39.2826 11.0605C39.3826 11.1005 39.4626 11.1805 39.5126 11.2805L41.2426 15.2505C41.2826 15.3505 41.2926 15.4605 41.2426 15.5605C41.1926 15.6605 41.1226 15.7405 41.0226 15.7905L37.0526 17.5205C36.8426 17.6105 36.6026 17.5205 36.5126 17.3105L36.5226 17.3005Z" fill="#B6B1B1"/>
<path d="M43.3923 17.6606C43.0823 16.9506 42.2424 16.6206 41.5324 16.9306L37.5624 18.6606C36.8524 18.9706 36.5224 19.8106 36.8324 20.5206L38.5624 24.4906C38.7124 24.8406 38.9924 25.1006 39.3424 25.2406C39.5124 25.3106 39.6825 25.3406 39.8625 25.3406C40.0525 25.3406 40.2423 25.3006 40.4223 25.2206L44.3923 23.4906C45.1023 23.1806 45.4322 22.3406 45.1222 21.6306L43.3923 17.6606ZM43.9923 22.5806L40.0224 24.3106C39.9224 24.3506 39.8123 24.3606 39.7023 24.3106C39.6023 24.2706 39.5223 24.1906 39.4723 24.0906L37.7423 20.1206C37.6523 19.9106 37.7423 19.6706 37.9523 19.5806L41.9223 17.8506C41.9723 17.8306 42.0324 17.8206 42.0824 17.8206C42.2424 17.8206 42.3923 17.9106 42.4623 18.0706L44.1923 22.0406C44.2823 22.2506 44.1923 22.4906 43.9823 22.5806H43.9923Z" fill="#B6B1B1"/>
<path d="M59.8425 6.66055C59.8425 3.43055 57.2224 0.810547 53.9924 0.810547C50.7624 0.810547 48.1423 3.43055 48.1423 6.66055C48.1423 9.72054 50.5024 12.2305 53.4924 12.4905V28.8005H52.5225C51.9025 28.8005 51.4023 29.3005 51.4023 29.9205C51.4023 30.5405 51.9025 31.0406 52.5225 31.0406H55.4624C56.0824 31.0406 56.5825 30.5405 56.5825 29.9205C56.5825 29.3005 56.0824 28.8005 55.4624 28.8005H54.4924V12.4905C57.4824 12.2305 59.8425 9.72054 59.8425 6.66055ZM55.5725 29.9105C55.5725 29.9705 55.5224 30.0305 55.4524 30.0305H52.5125C52.4525 30.0305 52.3923 29.9805 52.3923 29.9105C52.3923 29.8405 52.4425 29.7906 52.5125 29.7906H55.4524C55.5124 29.7906 55.5725 29.8405 55.5725 29.9105ZM49.1323 6.66055C49.1323 3.98055 51.3124 1.81055 53.9824 1.81055C56.6524 1.81055 58.8325 3.99055 58.8325 6.66055C58.8325 9.16055 56.9224 11.2105 54.4824 11.4605V11.0406C56.6924 10.7906 58.4124 8.93055 58.4124 6.66055C58.4124 4.22055 56.4224 2.23055 53.9824 2.23055C51.5424 2.23055 49.5525 4.22055 49.5525 6.66055C49.5525 8.93055 51.2824 10.7906 53.4824 11.0406V11.4605C51.0424 11.2105 49.1323 9.16055 49.1323 6.66055ZM54.3425 8.56055H53.6323C53.3523 8.56055 53.1323 8.34055 53.1323 8.06055V6.44055C53.1323 6.16055 53.3523 5.94055 53.6323 5.94055H54.3425C54.6225 5.94055 54.8425 6.16055 54.8425 6.44055V8.06055C54.8425 8.34055 54.6225 8.56055 54.3425 8.56055ZM54.4824 9.55054C55.2424 9.48055 55.8425 8.84055 55.8425 8.06055V6.44055C55.8425 5.61055 55.1725 4.94055 54.3425 4.94055H53.6323C52.8023 4.94055 52.1323 5.61055 52.1323 6.44055V8.06055C52.1323 8.84055 52.7324 9.47054 53.4924 9.55054V10.0505C51.8424 9.81054 50.5625 8.39055 50.5625 6.67055C50.5625 4.78055 52.1024 3.24055 53.9924 3.24055C55.8824 3.24055 57.4224 4.78055 57.4224 6.67055C57.4224 8.39055 56.1424 9.81054 54.4924 10.0505V9.55054H54.4824Z" fill="#B6B1B1"/>
<path d="M5.58258 49.9365C4.83858 49.9365 4.17258 49.7625 3.58458 49.4145C3.00058 49.0665 2.54058 48.5585 2.20458 47.8905C1.86858 47.2185 1.70058 46.3985 1.70058 45.4305C1.70058 44.5145 1.86458 43.7205 2.19258 43.0485C2.52058 42.3725 2.97858 41.8505 3.56658 41.4825C4.15458 41.1105 4.83658 40.9245 5.61258 40.9245C6.18458 40.9245 6.71058 41.0365 7.19058 41.2605C7.67458 41.4845 8.06458 41.8165 8.36058 42.2565C8.66058 42.6925 8.82058 43.2325 8.84058 43.8765H7.69458C7.67058 43.4485 7.55858 43.0945 7.35858 42.8145C7.16258 42.5305 6.90858 42.3185 6.59658 42.1785C6.28458 42.0345 5.94058 41.9625 5.56458 41.9625C5.04858 41.9625 4.58458 42.1005 4.17258 42.3765C3.76458 42.6485 3.44258 43.0425 3.20658 43.5585C2.97058 44.0745 2.85258 44.6965 2.85258 45.4245C2.85258 46.2525 2.97658 46.9225 3.22458 47.4345C3.47258 47.9425 3.80458 48.3145 4.22058 48.5505C4.63658 48.7825 5.09658 48.8985 5.60058 48.8985C6.06058 48.8985 6.44058 48.8165 6.74058 48.6525C7.04458 48.4845 7.27658 48.2645 7.43658 47.9925C7.59658 47.7205 7.68658 47.4265 7.70658 47.1105H8.84058C8.80458 47.6905 8.65058 48.1925 8.37858 48.6165C8.11058 49.0405 7.74058 49.3665 7.26858 49.5945C6.79658 49.8225 6.23458 49.9365 5.58258 49.9365ZM11.8791 49.8825C11.4631 49.8825 11.1031 49.8045 10.7991 49.6485C10.4991 49.4885 10.2671 49.2725 10.1031 49.0005C9.94311 48.7285 9.86311 48.4205 9.86311 48.0765C9.86311 47.7205 9.93311 47.4205 10.0731 47.1765C10.2131 46.9285 10.4151 46.7265 10.6791 46.5705C10.9431 46.4105 11.2631 46.2905 11.6391 46.2105C11.8871 46.1545 12.1491 46.1105 12.4251 46.0785C12.7051 46.0465 12.9731 46.0205 13.2291 46.0005C13.4851 45.9805 13.7031 45.9665 13.8831 45.9585V45.5925C13.8831 45.0685 13.7731 44.6925 13.5531 44.4645C13.3331 44.2325 12.9911 44.1165 12.5271 44.1165C12.2391 44.1165 11.9851 44.1545 11.7651 44.2305C11.5491 44.3065 11.3811 44.4485 11.2611 44.6565C11.1411 44.8605 11.0831 45.1605 11.0871 45.5565H10.0431C9.99511 45.0165 10.0711 44.5685 10.2711 44.2125C10.4711 43.8525 10.7711 43.5845 11.1711 43.4085C11.5711 43.2285 12.0451 43.1385 12.5931 43.1385C12.9051 43.1385 13.2031 43.1765 13.4871 43.2525C13.7711 43.3245 14.0231 43.4485 14.2431 43.6245C14.4631 43.7965 14.6371 44.0325 14.7651 44.3325C14.8931 44.6325 14.9571 45.0085 14.9571 45.4605V49.8105H13.8711L13.8831 48.3885C13.7831 48.8405 13.5571 49.2025 13.2051 49.4745C12.8571 49.7465 12.4151 49.8825 11.8791 49.8825ZM12.1371 49.0005C12.4291 49.0005 12.6971 48.9465 12.9411 48.8385C13.1891 48.7305 13.3971 48.5925 13.5651 48.4245C13.7331 48.2565 13.8391 48.0845 13.8831 47.9085V46.6365C13.6511 46.6525 13.3931 46.6805 13.1091 46.7205C12.8251 46.7565 12.5751 46.8005 12.3591 46.8525C11.9271 46.9525 11.6051 47.0865 11.3931 47.2545C11.1851 47.4225 11.0811 47.6645 11.0811 47.9805C11.0811 48.1685 11.1211 48.3405 11.2011 48.4965C11.2851 48.6485 11.4051 48.7705 11.5611 48.8625C11.7171 48.9505 11.9091 48.9965 12.1371 49.0005ZM19.731 49.8825C19.303 49.8825 18.959 49.8065 18.699 49.6545C18.443 49.5025 18.251 49.3265 18.123 49.1265C17.999 48.9265 17.923 48.7585 17.895 48.6225L17.613 48.4245L17.973 48.2745C17.997 48.3545 18.069 48.4505 18.189 48.5625C18.309 48.6745 18.471 48.7725 18.675 48.8565C18.883 48.9405 19.123 48.9825 19.395 48.9825C19.907 48.9825 20.327 48.7805 20.655 48.3765C20.983 47.9725 21.147 47.3485 21.147 46.5045C21.147 45.7005 20.995 45.1025 20.691 44.7105C20.391 44.3185 20.009 44.1225 19.545 44.1225C19.225 44.1225 18.955 44.1725 18.735 44.2725C18.515 44.3725 18.343 44.4925 18.219 44.6325C18.095 44.7725 18.013 44.9065 17.973 45.0345L17.871 44.8605L17.973 44.6985C17.993 44.4345 18.073 44.1845 18.213 43.9485C18.357 43.7085 18.567 43.5145 18.843 43.3665C19.119 43.2145 19.465 43.1385 19.881 43.1385C20.377 43.1385 20.805 43.2725 21.165 43.5405C21.525 43.8045 21.803 44.1825 21.999 44.6745C22.195 45.1625 22.293 45.7445 22.293 46.4205C22.293 47.0005 22.219 47.5085 22.071 47.9445C21.923 48.3765 21.725 48.7365 21.477 49.0245C21.229 49.3125 20.953 49.5285 20.649 49.6725C20.349 49.8125 20.043 49.8825 19.731 49.8825ZM16.869 49.8105L16.863 40.4745H17.973V43.4025L17.979 48.3945L18.087 48.6105L17.973 48.7485L17.925 49.8105H16.869ZM23.8497 49.8105V43.3005H24.9777L24.9597 49.8105H23.8497ZM24.4197 42.2505C24.1997 42.2505 24.0117 42.1745 23.8557 42.0225C23.7037 41.8705 23.6277 41.6745 23.6277 41.4345C23.6277 41.1985 23.7037 41.0045 23.8557 40.8525C24.0117 40.7005 24.1997 40.6245 24.4197 40.6245C24.6357 40.6245 24.8197 40.7005 24.9717 40.8525C25.1277 41.0045 25.2057 41.1985 25.2057 41.4345C25.2057 41.6745 25.1277 41.8705 24.9717 42.0225C24.8157 42.1745 24.6317 42.2505 24.4197 42.2505ZM26.9938 49.8105V43.2645H27.9418L28.0618 45.7305L27.9538 45.2325C28.0058 44.8445 28.1138 44.4925 28.2778 44.1765C28.4458 43.8565 28.6798 43.6025 28.9798 43.4145C29.2838 43.2225 29.6658 43.1265 30.1258 43.1265C30.7338 43.1265 31.2058 43.3145 31.5418 43.6905C31.8818 44.0625 32.0518 44.6185 32.0518 45.3585V49.8105H30.9358V45.7245C30.9358 45.3525 30.8938 45.0525 30.8098 44.8245C30.7298 44.5965 30.5998 44.4305 30.4198 44.3265C30.2438 44.2225 30.0078 44.1705 29.7118 44.1705C29.3558 44.1705 29.0418 44.2685 28.7698 44.4645C28.5018 44.6605 28.2818 44.9305 28.1098 45.2745V49.8105H26.9938ZM35.5627 49.8825C35.1467 49.8825 34.7867 49.8045 34.4827 49.6485C34.1827 49.4885 33.9507 49.2725 33.7867 49.0005C33.6267 48.7285 33.5467 48.4205 33.5467 48.0765C33.5467 47.7205 33.6167 47.4205 33.7567 47.1765C33.8967 46.9285 34.0987 46.7265 34.3627 46.5705C34.6267 46.4105 34.9467 46.2905 35.3227 46.2105C35.5707 46.1545 35.8327 46.1105 36.1087 46.0785C36.3887 46.0465 36.6567 46.0205 36.9127 46.0005C37.1687 45.9805 37.3867 45.9665 37.5667 45.9585V45.5925C37.5667 45.0685 37.4567 44.6925 37.2367 44.4645C37.0167 44.2325 36.6747 44.1165 36.2107 44.1165C35.9227 44.1165 35.6687 44.1545 35.4487 44.2305C35.2327 44.3065 35.0647 44.4485 34.9447 44.6565C34.8247 44.8605 34.7667 45.1605 34.7707 45.5565H33.7267C33.6787 45.0165 33.7547 44.5685 33.9547 44.2125C34.1547 43.8525 34.4547 43.5845 34.8547 43.4085C35.2547 43.2285 35.7287 43.1385 36.2767 43.1385C36.5887 43.1385 36.8867 43.1765 37.1707 43.2525C37.4547 43.3245 37.7067 43.4485 37.9267 43.6245C38.1467 43.7965 38.3207 44.0325 38.4487 44.3325C38.5767 44.6325 38.6407 45.0085 38.6407 45.4605V49.8105H37.5547L37.5667 48.3885C37.4667 48.8405 37.2407 49.2025 36.8887 49.4745C36.5407 49.7465 36.0987 49.8825 35.5627 49.8825ZM35.8207 49.0005C36.1127 49.0005 36.3807 48.9465 36.6247 48.8385C36.8727 48.7305 37.0807 48.5925 37.2487 48.4245C37.4167 48.2565 37.5227 48.0845 37.5667 47.9085V46.6365C37.3347 46.6525 37.0767 46.6805 36.7927 46.7205C36.5087 46.7565 36.2587 46.8005 36.0427 46.8525C35.6107 46.9525 35.2887 47.0865 35.0767 47.2545C34.8687 47.4225 34.7647 47.6645 34.7647 47.9805C34.7647 48.1685 34.8047 48.3405 34.8847 48.4965C34.9687 48.6485 35.0887 48.7705 35.2447 48.8625C35.4007 48.9505 35.5927 48.9965 35.8207 49.0005ZM42.5055 49.9125C42.0535 49.9125 41.6395 49.8445 41.2635 49.7085C40.8915 49.5685 40.5895 49.3525 40.3575 49.0605C40.1255 48.7645 39.9955 48.3845 39.9675 47.9205H41.0715C41.1435 48.3205 41.3015 48.5965 41.5455 48.7485C41.7935 48.8965 42.1075 48.9705 42.4875 48.9705C42.7475 48.9705 42.9815 48.9425 43.1895 48.8865C43.4015 48.8305 43.5695 48.7365 43.6935 48.6045C43.8175 48.4725 43.8795 48.2925 43.8795 48.0645C43.8795 47.8885 43.8415 47.7465 43.7655 47.6385C43.6895 47.5305 43.5835 47.4425 43.4475 47.3745C43.3115 47.3025 43.1515 47.2405 42.9675 47.1885C42.7875 47.1365 42.5915 47.0805 42.3795 47.0205C41.9835 46.9045 41.6175 46.7705 41.2815 46.6185C40.9455 46.4625 40.6755 46.2545 40.4715 45.9945C40.2675 45.7345 40.1655 45.3865 40.1655 44.9505C40.1655 44.4145 40.3695 43.9805 40.7775 43.6485C41.1855 43.3125 41.7215 43.1445 42.3855 43.1445C42.8055 43.1445 43.1835 43.2085 43.5195 43.3365C43.8595 43.4645 44.1355 43.6705 44.3475 43.9545C44.5635 44.2345 44.6955 44.6105 44.7435 45.0825H43.6455C43.6055 44.8665 43.5315 44.6845 43.4235 44.5365C43.3195 44.3885 43.1815 44.2765 43.0095 44.2005C42.8375 44.1245 42.6275 44.0865 42.3795 44.0865C42.1715 44.0865 41.9835 44.1165 41.8155 44.1765C41.6475 44.2325 41.5135 44.3225 41.4135 44.4465C41.3135 44.5705 41.2635 44.7345 41.2635 44.9385C41.2635 45.1625 41.3235 45.3425 41.4435 45.4785C41.5635 45.6145 41.7335 45.7285 41.9535 45.8205C42.1735 45.9085 42.4315 45.9965 42.7275 46.0845C42.9555 46.1565 43.1995 46.2325 43.4595 46.3125C43.7195 46.3885 43.9635 46.4905 44.1915 46.6185C44.4235 46.7465 44.6115 46.9185 44.7555 47.1345C44.9035 47.3465 44.9775 47.6245 44.9775 47.9685C44.9775 48.5845 44.7495 49.0625 44.2935 49.4025C43.8375 49.7425 43.2415 49.9125 42.5055 49.9125ZM50.7686 49.8825C50.2366 49.8825 49.7766 49.7425 49.3886 49.4625C49.0046 49.1825 48.7086 48.7885 48.5006 48.2805C48.2966 47.7725 48.1946 47.1785 48.1946 46.4985C48.1946 45.7465 48.3206 45.1225 48.5726 44.6265C48.8286 44.1265 49.1566 43.7545 49.5566 43.5105C49.9606 43.2625 50.3866 43.1385 50.8346 43.1385C51.2706 43.1385 51.6126 43.2125 51.8606 43.3605C52.1126 43.5085 52.2966 43.6805 52.4126 43.8765C52.5326 44.0685 52.6046 44.2345 52.6286 44.3745L52.9826 44.4345L52.5506 44.8125C52.5226 44.7285 52.4546 44.6325 52.3466 44.5245C52.2386 44.4125 52.0846 44.3165 51.8846 44.2365C51.6846 44.1525 51.4306 44.1105 51.1226 44.1105C50.6066 44.1105 50.1806 44.3045 49.8446 44.6925C49.5086 45.0765 49.3406 45.6865 49.3406 46.5225C49.3406 47.2985 49.4986 47.8945 49.8146 48.3105C50.1346 48.7265 50.5446 48.9345 51.0446 48.9345C51.3566 48.9345 51.6146 48.8805 51.8186 48.7725C52.0266 48.6645 52.1886 48.5325 52.3046 48.3765C52.4246 48.2205 52.5066 48.0745 52.5506 47.9385L52.6106 48.1545L52.5506 48.3765C52.5306 48.5085 52.4866 48.6605 52.4186 48.8325C52.3506 49.0005 52.2486 49.1645 52.1126 49.3245C51.9766 49.4845 51.7986 49.6185 51.5786 49.7265C51.3626 49.8305 51.0926 49.8825 50.7686 49.8825ZM52.5566 49.8105L52.5506 40.4745H53.6606L53.6666 49.8105H52.5566ZM58.1595 49.9005C57.5635 49.9005 57.0395 49.7705 56.5875 49.5105C56.1395 49.2505 55.7915 48.8685 55.5435 48.3645C55.2955 47.8565 55.1715 47.2365 55.1715 46.5045C55.1715 45.8005 55.2995 45.1965 55.5555 44.6925C55.8115 44.1885 56.1635 43.8025 56.6115 43.5345C57.0595 43.2665 57.5695 43.1325 58.1415 43.1325C58.7095 43.1325 59.1955 43.2545 59.5995 43.4985C60.0075 43.7425 60.3215 44.0925 60.5415 44.5485C60.7615 45.0005 60.8695 45.5425 60.8655 46.1745C60.8655 46.3025 60.8615 46.4085 60.8535 46.4925C60.8455 46.5765 60.8395 46.6645 60.8355 46.7565H56.2875C56.3155 47.4765 56.4955 48.0225 56.8275 48.3945C57.1635 48.7625 57.5915 48.9465 58.1115 48.9465C58.5515 48.9465 58.8915 48.8545 59.1315 48.6705C59.3755 48.4825 59.5295 48.2425 59.5935 47.9505H60.6855C60.6575 48.3665 60.5295 48.7205 60.3015 49.0125C60.0775 49.3045 59.7815 49.5265 59.4135 49.6785C59.0455 49.8265 58.6275 49.9005 58.1595 49.9005ZM56.8815 45.9165H59.7435C59.7355 45.3565 59.5975 44.9165 59.3295 44.5965C59.0615 44.2765 58.6515 44.1165 58.0995 44.1165C57.5195 44.1165 57.0795 44.3145 56.7795 44.7105C56.4795 45.1025 56.3155 45.6445 56.2875 46.3365C56.3195 46.1725 56.3835 46.0625 56.4795 46.0065C56.5795 45.9465 56.7135 45.9165 56.8815 45.9165ZM64.8432 49.8105V44.8425C64.8432 44.7145 64.8692 44.5945 64.9212 44.4825C64.9732 44.3705 65.0492 44.2985 65.1492 44.2665L64.8432 43.5285V42.4845C64.8432 41.9725 64.9412 41.5485 65.1372 41.2125C65.3372 40.8725 65.6032 40.6205 65.9352 40.4565C66.2712 40.2885 66.6452 40.2045 67.0572 40.2045C67.2572 40.2045 67.4232 40.2105 67.5552 40.2225C67.6872 40.2345 67.8012 40.2465 67.8972 40.2585V41.3385C67.8092 41.3025 67.7012 41.2765 67.5732 41.2605C67.4492 41.2445 67.2932 41.2365 67.1052 41.2365C66.8612 41.2365 66.6512 41.2785 66.4752 41.3625C66.3032 41.4425 66.1712 41.5865 66.0792 41.7945C65.9872 41.9985 65.9412 42.2885 65.9412 42.6645V49.8105H64.8432ZM63.8052 44.2665V43.2645H67.5072V44.2665H63.8052ZM71.043 49.9005C70.467 49.9005 69.961 49.7705 69.525 49.5105C69.093 49.2505 68.755 48.8685 68.511 48.3645C68.271 47.8565 68.151 47.2345 68.151 46.4985C68.151 45.8025 68.279 45.2025 68.535 44.6985C68.791 44.1945 69.139 43.8085 69.579 43.5405C70.023 43.2685 70.519 43.1325 71.067 43.1325C71.663 43.1325 72.177 43.2685 72.609 43.5405C73.045 43.8085 73.381 44.1945 73.617 44.6985C73.853 45.2025 73.971 45.8025 73.971 46.4985C73.971 47.2345 73.839 47.8565 73.575 48.3645C73.315 48.8685 72.963 49.2505 72.519 49.5105C72.075 49.7705 71.583 49.9005 71.043 49.9005ZM71.067 48.9165C71.603 48.9165 72.031 48.7165 72.351 48.3165C72.671 47.9165 72.831 47.3105 72.831 46.4985C72.831 45.7225 72.673 45.1325 72.357 44.7285C72.045 44.3205 71.607 44.1165 71.043 44.1165C70.511 44.1165 70.085 44.3205 69.765 44.7285C69.449 45.1325 69.291 45.7225 69.291 46.4985C69.291 47.2825 69.451 47.8825 69.771 48.2985C70.095 48.7105 70.527 48.9165 71.067 48.9165ZM77.412 49.9005C76.904 49.9005 76.516 49.7705 76.248 49.5105C75.984 49.2465 75.852 48.8725 75.852 48.3885V44.8365C75.852 44.7085 75.878 44.5905 75.93 44.4825C75.982 44.3705 76.058 44.2985 76.158 44.2665L75.852 43.5225V43.3185L76.122 41.3625H76.956V48.2025C76.956 48.4585 77.016 48.6325 77.136 48.7245C77.256 48.8125 77.462 48.8565 77.754 48.8565C77.966 48.8565 78.146 48.8565 78.294 48.8565C78.442 48.8525 78.596 48.8445 78.756 48.8325V49.8165C78.536 49.8565 78.308 49.8805 78.072 49.8885C77.84 49.8965 77.62 49.9005 77.412 49.9005ZM74.898 44.2665V43.2645H78.702V44.2665H74.898ZM82.3985 49.9005C81.8225 49.9005 81.3165 49.7705 80.8805 49.5105C80.4485 49.2505 80.1105 48.8685 79.8665 48.3645C79.6265 47.8565 79.5065 47.2345 79.5065 46.4985C79.5065 45.8025 79.6345 45.2025 79.8905 44.6985C80.1465 44.1945 80.4945 43.8085 80.9345 43.5405C81.3785 43.2685 81.8745 43.1325 82.4225 43.1325C83.0185 43.1325 83.5325 43.2685 83.9645 43.5405C84.4005 43.8085 84.7365 44.1945 84.9725 44.6985C85.2085 45.2025 85.3265 45.8025 85.3265 46.4985C85.3265 47.2345 85.1945 47.8565 84.9305 48.3645C84.6705 48.8685 84.3185 49.2505 83.8745 49.5105C83.4305 49.7705 82.9385 49.9005 82.3985 49.9005ZM82.4225 48.9165C82.9585 48.9165 83.3865 48.7165 83.7065 48.3165C84.0265 47.9165 84.1865 47.3105 84.1865 46.4985C84.1865 45.7225 84.0285 45.1325 83.7125 44.7285C83.4005 44.3205 82.9625 44.1165 82.3985 44.1165C81.8665 44.1165 81.4405 44.3205 81.1205 44.7285C80.8045 45.1325 80.6465 45.7225 80.6465 46.4985C80.6465 47.2825 80.8065 47.8825 81.1265 48.2985C81.4505 48.7105 81.8825 48.9165 82.4225 48.9165Z" fill="#727171"/>
</svg>
