<svg width="19" height="19" viewBox="0 0 19 19" fill="none" xmlns="http://www.w3.org/2000/svg">
<g clip-path="url(#clip0_3532_1189)">
<path d="M18.9854 6.2982C18.9689 5.61843 18.9153 4.93384 18.8075 4.26304C18.4648 2.13313 16.8453 0.544483 14.7214 0.207874C13.6003 0.030439 12.4698 -0.00229171 11.3383 0.000120028C9.87546 0.00356537 8.41225 0.00735524 6.95008 0.0380187C6.11151 0.05559 5.26814 0.0772956 4.43747 0.183067C2.06599 0.485568 0.363781 2.36328 0.183842 4.81532C0.127182 5.58639 0.0918127 6.35952 0.061594 7.13231C0.0300018 7.93404 -0.0022773 8.73612 0.00012646 9.53785C0.00253022 10.3799 0.0330923 11.2223 0.074643 12.0636C0.118941 12.9556 0.139888 13.8535 0.260076 14.7365C0.538225 16.7793 2.16763 18.4175 4.19949 18.7696C5.24444 18.9509 6.30107 19.0067 7.357 18.9998C9.48193 18.986 11.6072 18.9502 13.7314 18.8937C14.2688 18.8795 14.8169 18.8044 15.3371 18.6694C17.5012 18.1071 18.6619 16.1295 18.8724 14.3937C18.9603 13.6685 18.9545 12.9305 18.9682 12.1976C18.9833 11.4066 18.9716 10.6152 18.9716 9.82415C18.9785 9.82415 18.9854 9.82415 18.9922 9.82415C18.9922 8.64895 19.0125 7.4734 18.9843 6.29889L18.9854 6.2982ZM17.1939 13.922C17.1479 15.7043 15.8766 17.0466 14.1009 17.1762C13.2301 17.2396 5.94771 17.2464 4.93985 17.1744C3.33174 17.0597 2.09414 15.8731 1.90802 14.2628C1.82733 13.5644 1.78784 6.37709 1.87815 5.00585C1.9585 3.78655 2.48733 2.79567 3.60645 2.19893C4.1861 1.88954 4.81795 1.80927 5.46387 1.80065C6.81787 1.78239 11.4575 1.76172 12.4231 1.77722C13.0903 1.78791 13.7623 1.79273 14.423 1.87542C15.925 2.06353 17.026 3.22392 17.1564 4.74263C17.2179 5.46098 17.2262 12.6672 17.1939 13.922Z" fill="#333333"/>
<path d="M9.54211 4.61719C6.83856 4.61719 4.66797 6.79051 4.66797 9.49854C4.66797 12.1859 6.83376 14.382 9.48648 14.3844C12.2048 14.3868 14.3946 12.2245 14.396 9.53644C14.3974 6.80394 12.2398 4.61753 9.54211 4.61719ZM9.47137 12.6714C7.76298 12.6672 6.36468 11.2185 6.3688 9.45685C6.37292 7.74176 7.80797 6.32745 9.54108 6.33055C11.2941 6.33365 12.6996 7.75796 12.6955 9.52714C12.6914 11.2801 11.2601 12.6758 9.47137 12.6717V12.6714Z" fill="#333333"/>
<path d="M14.6062 3.28131C13.984 3.2751 13.4658 3.7857 13.461 4.40965C13.4562 5.04015 13.9582 5.55178 14.5846 5.55419C15.2202 5.55661 15.7243 5.06082 15.7263 4.43101C15.7284 3.79707 15.2319 3.28751 14.6062 3.28131Z" fill="#333333"/>
</g>
<defs>
<clipPath id="clip0_3532_1189">
<rect width="19" height="19" fill="white"/>
</clipPath>
</defs>
</svg>
