<svg width="133" height="35" viewBox="0 0 133 35" fill="none" xmlns="http://www.w3.org/2000/svg">
<g clip-path="url(#clip0_718_202)">
<path d="M12.8263 24.5246L12.1672 23.9714C11.3215 23.2647 11.2262 22.0209 11.9516 21.2011L12.2335 20.8821C12.2749 20.8336 16.4825 16.0604 19.8817 11.6748C23.0695 7.56376 22.9161 6.23112 22.427 5.52845C21.6642 4.43811 19.1894 4.55118 15.0731 5.86363C10.0986 7.45068 3.78523 10.0554 3.71891 10.0796L3.32095 10.2452C2.2929 10.6692 1.11147 10.2008 0.676205 9.20331L0.336285 8.42392C-0.0989787 7.42242 0.381884 6.2715 1.40579 5.84748L1.80375 5.68191C2.06905 5.57287 8.37415 2.97624 13.5434 1.32457C18.0619 -0.117103 23.6167 -1.25187 26.477 2.83894C29.5114 7.18012 25.6479 12.1594 23.7949 14.5541C20.3004 19.0608 16.126 23.7977 15.9519 23.9956L15.67 24.3147C14.9446 25.1385 13.6678 25.2313 12.8263 24.5246Z" fill="#F9A823"/>
<path d="M7.21252 35C4.80406 35 2.60287 34.2812 1.12297 32.1651C-1.91144 27.8239 1.95205 22.8447 3.80503 20.45C7.29957 15.9432 11.474 11.2063 11.6481 11.0084L11.93 10.6894C12.6554 9.86559 13.9322 9.77271 14.7737 10.4794L15.4328 11.0327C16.2784 11.7394 16.3738 12.9832 15.6483 13.8029L15.3665 14.122C15.325 14.1704 11.1175 18.9437 7.71826 23.3293C4.53047 27.4403 4.68385 28.7729 5.173 29.4756C5.93575 30.5659 8.41053 30.4529 12.5269 29.1404C17.5013 27.5534 23.8147 24.9487 23.881 24.9244L24.279 24.7589C25.3071 24.3348 26.4885 24.8033 26.9237 25.8007L27.2637 26.5801C27.6989 27.5816 27.2181 28.7326 26.1942 29.1566L25.7962 29.3221C25.5309 29.4312 19.2258 32.0278 14.0565 33.6795C11.8761 34.3741 9.45516 35 7.21252 35Z" fill="#F9A823"/>
<path d="M114.437 13.2578V29.9844C114.437 30.9496 113.637 31.729 112.646 31.729H111.021C110.031 31.729 109.23 30.9496 109.23 29.9844V13.2578C109.23 12.2926 110.031 11.5132 111.021 11.5132H112.646C113.637 11.5132 114.437 12.2926 114.437 13.2578Z" fill="#333333"/>
<path d="M131.934 15.0669H128.17V29.835C128.17 30.8809 127.3 31.729 126.226 31.729H124.891C123.818 31.729 122.947 30.8809 122.947 29.835V15.0669H119.142C118.553 15.0669 118.076 14.6025 118.076 14.0291V11.9251C118.076 11.3517 118.553 10.8873 119.142 10.8873H122.947V4.80558C122.947 3.69909 123.867 2.80258 125.003 2.80258H126.118C127.254 2.80258 128.174 3.69909 128.174 4.80558V10.8832H131.938C132.527 10.8832 133.004 11.3476 133.004 11.9211V14.025C133.004 14.5985 132.527 15.0629 131.938 15.0629L131.934 15.0669Z" fill="#333333"/>
<path d="M43.7747 10.916C40.8936 10.916 39.0614 11.5177 36.0021 14.1506C35.3181 14.7362 34.3067 15.8023 34.3067 15.8023C34.2445 15.8629 34.1657 15.8911 34.0828 15.8911C33.9916 15.8911 33.9046 15.8548 33.8424 15.7821C33.7346 15.6569 33.7595 15.4631 33.8797 15.35L35.886 13.4116C36.541 12.7817 36.9058 11.9215 36.9058 11.025V4.73331C36.9058 3.6672 36.0187 2.80704 34.9285 2.80704H33.6766C32.5822 2.80704 31.6992 3.67123 31.6992 4.73331V29.8071C31.6992 30.8733 32.5863 31.7334 33.6766 31.7334H34.887C35.9814 31.7334 36.8643 30.8692 36.8643 29.8071V19.0168C36.8643 17.7447 37.3411 17.5105 38.2945 16.8159C43.0368 13.4722 45.7396 16.1375 45.7396 18.6009V29.8071C45.7396 30.8733 46.6267 31.7334 47.7169 31.7334H48.9688C50.0632 31.7334 50.9462 30.8692 50.9462 29.8071V19.4691C50.9462 13.0159 47.1283 10.92 43.7705 10.92L43.7747 10.916Z" fill="#333333"/>
<path d="M64.435 10.8873C58.7393 10.8873 54.1172 15.2971 54.1172 21.5444C54.1172 27.7916 58.7351 32.2014 64.435 32.2014C70.1349 32.2014 74.7528 27.7916 74.7528 21.5444C74.7528 15.2971 70.1349 10.8873 64.435 10.8873ZM64.435 27.7916C61.612 27.7916 59.3279 25.4777 59.3279 21.5444C59.3279 17.611 61.6162 15.2971 64.435 15.2971C67.2539 15.2971 69.5421 17.502 69.5421 21.5444C69.5421 25.5867 67.2539 27.7916 64.435 27.7916Z" fill="#333333"/>
<path d="M102.05 11.5172C101.386 11.5172 100.806 11.9493 100.636 12.5753C99.8525 15.4384 98.4099 20.7407 97.7093 23.3252C97.5228 24.0158 96.9673 26.0915 96.9673 26.0915C96.9673 26.0915 95.2594 22.2672 94.4055 20.0542C94.1443 19.3758 93.2033 18.241 91.1348 18.241C89.0662 18.241 88.1252 19.3758 87.8641 20.0542C86.9853 22.3237 85.3022 26.0915 85.3022 26.0915C85.3022 26.0915 84.7468 24.0158 84.5602 23.3252C83.8638 20.7367 82.4171 15.4384 81.6336 12.5753C81.4636 11.9534 80.8833 11.5172 80.22 11.5172H77.8033C76.8415 11.5172 76.141 12.4097 76.3938 13.3143C77.3556 16.763 79.192 23.3616 79.7599 25.4817C80.3402 27.6462 81.1486 31.6724 85.5178 31.6724C88.2247 31.6724 89.174 28.8941 91.1306 23.7614C93.0872 28.8941 94.0365 31.6724 96.7435 31.6724C101.113 31.6724 101.921 27.6462 102.501 25.4817C103.069 23.3616 104.906 16.763 105.867 13.3143C106.12 12.4097 105.42 11.5172 104.458 11.5172H102.041H102.05Z" fill="#333333"/>
<path d="M111.834 8.18161C113.272 8.18161 114.437 7.04618 114.437 5.64555C114.437 4.24493 113.272 3.1095 111.834 3.1095C110.396 3.1095 109.23 4.24493 109.23 5.64555C109.23 7.04618 110.396 8.18161 111.834 8.18161Z" fill="#333333"/>
</g>
<defs>
<clipPath id="clip0_718_202">
<rect width="133" height="35" fill="white"/>
</clipPath>
</defs>
</svg>
