<svg width="31" height="19" viewBox="0 0 31 9" fill="none" xmlns="http://www.w3.org/2000/svg">
<path d="M30.0148 11.2438C29.7748 10.8638 29.3648 10.6338 28.9148 10.6338H22.2748V6.82375C22.2748 3.52375 19.5948 0.84375 16.2948 0.84375H13.9148C10.6148 0.84375 7.93477 3.52375 7.93477 6.82375V10.6338H1.28477C0.834771 10.6338 0.42477 10.8638 0.19477 11.2438C-0.0452296 11.6238 -0.0652298 12.0937 0.14477 12.5137L2.90477 17.5437C3.12477 17.9837 3.56477 18.2637 4.05477 18.2637H26.0848C26.5748 18.2637 27.0148 17.9938 27.2248 17.5738L30.0648 12.5037C30.2648 12.1037 30.2448 11.6338 30.0148 11.2438ZM13.9148 1.83375H16.2948C19.0348 1.83375 21.2648 4.06375 21.2748 6.80375H8.93477C8.93477 4.06375 11.1748 1.83375 13.9148 1.83375ZM20.8848 7.80375C20.3648 8.03375 20.0248 8.44375 19.7248 8.79375C19.2848 9.31375 19.0148 9.61375 18.4348 9.61375C17.8548 9.61375 17.5848 9.31375 17.1448 8.79375C16.8548 8.44375 16.5048 8.03375 15.9848 7.80375H20.8748H20.8848ZM14.2048 7.80375C13.6848 8.03375 13.3448 8.44375 13.0448 8.79375C12.6048 9.31375 12.3348 9.61375 11.7648 9.61375C11.1948 9.61375 10.9148 9.31375 10.4848 8.79375C10.1948 8.44375 9.84477 8.03375 9.32477 7.80375H14.2048ZM8.93477 8.73375C9.21477 8.86375 9.43477 9.09375 9.71477 9.43375C10.1548 9.96375 10.6948 10.6137 11.7648 10.6137C12.8348 10.6137 13.3748 9.96375 13.8148 9.43375C14.2548 8.91375 14.5248 8.61375 15.0948 8.61375C15.6648 8.61375 15.9448 8.91375 16.3848 9.43375C16.8248 9.96375 17.3648 10.6137 18.4348 10.6137C19.5048 10.6137 20.0448 9.96375 20.4848 9.43375C20.7748 9.09375 20.9948 8.85375 21.2748 8.72375V10.6237H8.92477V8.72375L8.93477 8.73375ZM1.04477 11.7637C1.04477 11.7637 1.14477 11.6237 1.29477 11.6237H28.9248C29.0748 11.6237 29.1448 11.7237 29.1748 11.7637C29.2048 11.8037 29.2548 11.9138 29.1948 12.0238L28.6848 12.9337H1.52477L1.03477 12.0437C0.97477 11.9137 1.02477 11.8037 1.04477 11.7637ZM26.3548 17.0938C26.3048 17.1938 26.2048 17.2537 26.0948 17.2537H4.06477C3.95477 17.2537 3.85477 17.1938 3.79477 17.0738L2.07477 13.9337H28.1248L26.3548 17.0938Z" fill="#B6B1B1"/>
</svg>
