<svg width="275" height="166" viewBox="0 0 275 166" fill="none" xmlns="http://www.w3.org/2000/svg">
<path d="M205.057 55.5373H68.3848V114.777H205.057V55.5373Z" fill="#F6D095"/>
<path d="M274.565 166C236.312 151.546 188.539 142.965 136.721 142.965C84.9034 142.965 38.063 151.38 0 165.58L274.565 166Z" fill="url(#paint0_linear_724_120)"/>
<path d="M142.87 2.27486C139.331 -0.758285 134.108 -0.758285 130.569 2.27486L68.3848 55.5373H205.057L142.87 2.27486Z" fill="#F6DEBB"/>
<path d="M205.862 56.2242L205.058 55.5342L142.871 108.794C139.332 111.827 134.109 111.827 130.57 108.794L68.3859 55.5372L67.5824 56.2273C65.0982 58.3557 63.666 61.4655 63.666 64.7379V136.665C63.666 144.513 70.0298 150.877 77.8779 150.877H195.566C203.414 150.877 209.778 144.513 209.778 136.665V64.7348C209.778 61.4625 208.349 58.3526 205.862 56.2242Z" fill="#F9A823"/>
<path d="M137.283 128.934C149.687 128.934 159.742 118.879 159.742 106.475C159.742 94.0715 149.687 84.0164 137.283 84.0164C124.879 84.0164 114.824 94.0715 114.824 106.475C114.824 118.879 124.879 128.934 137.283 128.934Z" fill="white"/>
<path d="M132.793 117.97L125.672 111.33C124.506 110.241 124.442 108.413 125.53 107.248C126.619 106.082 128.447 106.018 129.612 107.107L132.915 110.189C133.817 111.032 134.066 111.569 134.066 111.569C134.066 111.569 134.335 110.934 135.197 110.072C136.813 108.453 145.904 98.7955 145.904 98.7955C147.002 97.6393 148.829 97.5902 149.986 98.6882C151.142 99.7861 151.191 101.614 150.093 102.77L135.743 117.884C134.952 118.718 133.636 118.758 132.793 117.973V117.97Z" fill="#F9A823"/>
<defs>
<linearGradient id="paint0_linear_724_120" x1="137.283" y1="166" x2="137.283" y2="142.965" gradientUnits="userSpaceOnUse">
<stop stop-color="#AA97EF" stop-opacity="0"/>
<stop offset="1" stop-color="#AA97EF" stop-opacity="0.25"/>
</linearGradient>
</defs>
</svg>
