<svg width="31" height="25" viewBox="0 0 31 25" fill="none" xmlns="http://www.w3.org/2000/svg">
<path d="M29.25 0.742188H1.17004C0.520044 0.742188 0 1.27219 0 1.91219C0 2.55219 0.530044 3.08219 1.17004 3.08219H1.95007V7.01219C1.74007 7.32219 1.3501 8.04219 1.3501 9.20219C1.3501 9.80219 1.55006 10.8922 1.81006 12.2622C2.16006 14.1422 2.59008 16.4822 2.58008 18.1122C2.56008 20.8022 1.40001 23.8122 1.39001 23.8422C1.33001 23.9922 1.35006 24.1722 1.44006 24.3022C1.53006 24.4422 1.6901 24.5222 1.8501 24.5222H4.03003C4.17003 24.5222 4.30002 24.4622 4.40002 24.3622C4.50002 24.2622 4.54003 24.1222 4.53003 23.9822L4.42004 22.7422C6.05004 17.8222 5.21005 12.9322 4.80005 10.5822L4.72009 10.1022C4.43009 8.35219 5.08008 7.58219 5.08008 7.58219C5.10008 7.57219 6.68008 6.08219 8.33008 6.08219C9.34008 6.08219 9.88002 6.41219 10.52 6.80219C11.16 7.19218 11.8801 7.63219 13.0601 7.63219C14.2401 7.63219 14.8401 7.30219 15.2201 6.95219C15.5901 7.31219 16.24 7.63219 17.38 7.63219C18.52 7.63219 19.29 7.19218 19.92 6.80219C20.55 6.42218 21.1001 6.08219 22.1101 6.08219C23.7501 6.08219 25.3301 7.55219 25.3401 7.55219C25.3401 7.55219 26.0101 8.35219 25.7301 10.1022L25.65 10.5822C25.24 12.9422 24.4 17.8222 26.03 22.7422L25.92 23.9922C25.91 24.1322 25.95 24.2722 26.05 24.3722C26.15 24.4722 26.28 24.5322 26.42 24.5322H28.6001C28.7701 24.5322 28.92 24.4522 29.01 24.3122C29.1 24.1722 29.1201 24.0022 29.0601 23.8522C29.0501 23.8222 27.8901 20.8122 27.8601 18.1222C27.8501 16.4922 28.28 14.1622 28.63 12.2822C28.89 10.9022 29.0901 9.82219 29.0901 9.21219C29.0901 8.04219 28.7001 7.32219 28.4901 7.02219V3.09219H29.27C29.92 3.09219 30.4401 2.56219 30.4401 1.92219C30.4401 1.28219 29.91 0.75219 29.27 0.75219L29.25 0.742188ZM29.25 2.09219H27.9701C27.6901 2.09219 27.4701 2.31219 27.4701 2.59219V7.19219C27.4701 7.31219 27.5201 7.43219 27.6001 7.52219C27.6201 7.54219 28.0701 8.08219 28.0701 9.21219C28.0701 9.72219 27.86 10.8222 27.63 12.0922C27.27 14.0122 26.8301 16.4022 26.8401 18.1322C26.8601 20.2322 27.5001 22.4422 27.8601 23.5322H26.9401L27.01 22.7322C27.01 22.6622 27.0101 22.5922 26.9901 22.5322C25.4001 17.8222 26.2201 13.0522 26.6101 10.7622L26.6901 10.2722C27.0601 8.01219 26.1 6.93219 26.04 6.86219C25.96 6.79219 24.1501 5.08219 22.1001 5.08219C20.8101 5.08219 20.06 5.54219 19.39 5.94219C18.79 6.31219 18.27 6.62218 17.37 6.62218C15.86 6.62218 15.7101 5.94219 15.7101 5.93219C15.6801 5.68219 15.4801 5.51219 15.2301 5.50219C14.9501 5.49219 14.7701 5.67219 14.7201 5.91219C14.7201 5.94219 14.5601 6.62218 13.0601 6.62218C12.1601 6.62218 11.64 6.31219 11.04 5.94219C10.38 5.54219 9.62008 5.08219 8.33008 5.08219C6.27008 5.08219 4.46011 6.78219 4.36011 6.88219C4.32011 6.92219 3.3601 8.00219 3.7301 10.2622L3.81006 10.7522C4.20006 13.0422 5.03005 17.8122 3.43005 22.5222C3.41005 22.5922 3.40003 22.6622 3.41003 22.7322L3.4801 23.5322H2.56006C2.92006 22.4422 3.56008 20.2422 3.58008 18.1322C3.59008 16.4122 3.15004 14.0122 2.79004 12.0922C2.55004 10.8222 2.3501 9.72219 2.3501 9.21219C2.3501 8.08219 2.81007 7.54219 2.82007 7.53219C2.90007 7.44219 2.95007 7.32219 2.95007 7.19219V2.59219C2.95007 2.31219 2.73007 2.09219 2.45007 2.09219H1.17004C1.07004 2.09219 1 2.01219 1 1.92219C1 1.83219 1.08004 1.75219 1.17004 1.75219H29.25C29.35 1.75219 29.42 1.83219 29.42 1.92219C29.42 2.01219 29.34 2.09219 29.25 2.09219Z" fill="#B6B1B1"/>
</svg>
