<svg width="105" height="33" viewBox="0 0 105 33" fill="none" xmlns="http://www.w3.org/2000/svg">
<path d="M86.3671 25.8986C86.1547 25.6499 85.8462 25.5087 85.5228 25.5087C84.9737 25.5087 84.501 25.9255 84.423 26.4767C84.073 28.9302 81.9897 30.7468 79.5513 30.7468C79.5132 30.7468 79.4767 30.7468 79.4385 30.7468C76.7862 30.6863 74.6299 28.4025 74.6299 25.6566V14.7805C74.6299 12.0346 76.7862 9.7508 79.4385 9.6903C81.9217 9.63317 84.0681 11.4683 84.423 13.9587C84.501 14.5116 84.9754 14.9267 85.5228 14.9267C85.8462 14.9267 86.1547 14.7839 86.3671 14.5368C86.5761 14.2932 86.6706 13.9722 86.6258 13.6563C86.1282 10.0886 83.0977 7.43677 79.5497 7.43677C79.5066 7.43677 79.4618 7.43677 79.4186 7.43677C75.5521 7.50735 72.4055 10.8095 72.4055 14.7973V25.6348C72.4055 29.6226 75.5521 32.9247 79.4186 32.9953C79.4618 32.9953 79.5066 32.9953 79.5497 32.9953C83.0977 32.9953 86.1265 30.3435 86.6258 26.7758C86.6706 26.4599 86.5761 26.1389 86.3671 25.8952V25.8986Z" fill="white"/>
<path d="M59.9332 23.0531L51.9232 15.6959C51.2746 15.101 50.8848 14.2793 50.8517 13.4407C50.8152 12.5366 51.1469 11.6963 51.7855 11.0762C52.7061 10.1822 53.9153 9.68984 55.1926 9.68984C57.6226 9.68984 59.7176 11.5266 60.0643 13.9616C60.1422 14.5128 60.615 14.9296 61.164 14.9296C61.4858 14.9296 61.7927 14.7884 62.0033 14.5414C62.2156 14.2927 62.3118 13.9616 62.2654 13.6339C61.7595 10.1016 58.7207 7.43799 55.1942 7.43799C53.3414 7.43799 51.5865 8.15388 50.2496 9.45121C49.1846 10.4864 48.6091 11.8846 48.629 13.3869C48.6489 14.8809 49.2875 16.3143 50.3806 17.3176L58.515 24.789C59.152 25.3755 59.5252 26.2107 59.5368 27.0829C59.5484 27.9534 59.2167 28.7617 58.5996 29.36C57.679 30.254 56.4698 30.7464 55.1926 30.7464C52.7625 30.7464 50.6676 28.9096 50.3209 26.4746C50.2429 25.9234 49.7702 25.5083 49.2211 25.5083C48.8993 25.5083 48.5925 25.6494 48.3818 25.8965C48.1695 26.1452 48.0733 26.4762 48.1197 26.8039C48.6256 30.3363 51.6644 32.9999 55.1909 32.9999C57.0437 32.9999 58.8003 32.284 60.1356 30.9867C61.2088 29.9431 61.7844 28.5348 61.7562 27.0207C61.728 25.5385 61.0628 24.0916 59.9316 23.0531H59.9332Z" fill="white"/>
<path d="M26.3606 31.5013V14.7838C26.3606 12.8328 25.5677 10.917 24.186 9.52557C22.8358 8.16606 21.0709 7.41992 19.2131 7.41992C19.1982 7.41992 19.1816 7.41992 19.165 7.41992C16.7349 7.43673 14.4791 8.71558 13.1803 10.7859C11.8815 8.71558 9.62562 7.43673 7.19558 7.41992C7.18065 7.41992 7.16406 7.41992 7.14748 7.41992C5.2897 7.41992 3.52646 8.16606 2.1746 9.52557C0.792874 10.9153 0 12.8328 0 14.7838V31.5013C0 32.1231 0.499278 32.6272 1.11135 32.6272C1.72342 32.6272 2.2227 32.1214 2.2227 31.5013V14.7704C2.2227 12.0396 4.36412 9.75412 6.99487 9.67514C8.33513 9.6348 9.60572 10.1339 10.5694 11.0834C11.5332 12.0329 12.0656 13.3016 12.0656 14.6595V31.5013C12.0656 32.1231 12.5649 32.6272 13.177 32.6272C13.789 32.6272 14.2883 32.1214 14.2883 31.5013V14.7704C14.2883 12.0396 16.4297 9.75412 19.0605 9.67514C20.3991 9.63312 21.6713 10.1339 22.6351 11.0834C23.6004 12.0329 24.1312 13.3016 24.1312 14.6595V31.5013C24.1312 32.1231 24.6305 32.6272 25.2426 32.6272C25.8547 32.6272 26.3539 32.1214 26.3539 31.5013H26.3606Z" fill="white"/>
<path d="M104.981 31.2963L101.559 11.0094C101.41 10.1675 100.532 7.41992 97.6476 7.41992C95.259 7.41992 93.9038 9.4029 93.6119 11.1019L90.3525 31.303C90.2961 31.6324 90.3856 31.9685 90.5979 32.2256C90.8103 32.4827 91.1221 32.6289 91.4522 32.6289C91.9963 32.6289 92.4574 32.2357 92.5519 31.6929L95.803 11.4901C95.9192 10.8111 96.4582 9.67345 97.6492 9.67345C98.7572 9.67345 99.2184 10.5204 99.3627 11.3489L102.78 31.6962C102.876 32.2357 103.337 32.6272 103.884 32.6272C104.216 32.6272 104.528 32.4794 104.74 32.2222C104.953 31.9651 105.041 31.6273 104.982 31.2963H104.981Z" fill="white"/>
<path d="M101.893 20.2284H93.5925V22.4416H101.893V20.2284Z" fill="white"/>
<path d="M43.3493 7.7915C42.7356 7.7915 42.2379 8.29733 42.2379 8.91743V25.5106C42.2379 26.9474 41.6872 28.3187 40.7252 29.2715C39.7382 30.2512 38.4428 30.7554 37.0809 30.6915C34.4518 30.5672 32.3934 28.3792 32.3934 25.7105V8.91743C32.3934 8.29565 31.8941 7.7915 31.282 7.7915C30.6699 7.7915 30.1707 8.29733 30.1707 8.91743V25.7105C30.1707 29.5841 33.1614 32.7602 36.9781 32.9417C37.0909 32.9467 37.2037 32.9501 37.3165 32.9501C39.1842 32.9501 40.9541 32.209 42.301 30.8629C43.6744 29.49 44.4606 27.5356 44.4606 25.5005V8.91911C44.4606 8.29733 43.9614 7.79319 43.3493 7.79319V7.7915Z" fill="white"/>
<path d="M67.4842 7.7915C66.8704 7.7915 66.3728 8.29733 66.3728 8.91743V31.4998C66.3728 32.1216 66.8721 32.6258 67.4842 32.6258C68.0962 32.6258 68.5955 32.1199 68.5955 31.4998V8.91743C68.5955 8.29565 68.0962 7.7915 67.4842 7.7915Z" fill="white"/>
<path d="M37.1639 5.59322C37.3663 5.75118 37.6051 5.82681 37.8406 5.82681C38.1741 5.82681 38.5041 5.67556 38.7214 5.38988L41.4451 1.8138C41.8199 1.32142 41.7287 0.613931 41.2444 0.234141C40.7584 -0.145649 40.06 -0.0532212 39.6852 0.437481L36.9632 4.01356C36.7824 4.25219 36.7028 4.54795 36.7409 4.8454C36.7791 5.14285 36.93 5.40836 37.1639 5.59322Z" fill="white"/>
</svg>
