<svg width="26" height="19" viewBox="0 0 26 9" fill="none" xmlns="http://www.w3.org/2000/svg">
<path d="M23.83 1.52367H22.77V1.33367C22.77 0.603672 22.18 0.023674 21.46 0.023674H20.89C20.71 0.023674 20.53 0.0636725 20.38 0.123672C20.38 0.123672 20.38 0.113676 20.36 0.103676C20.13 -0.0563242 19.82 0.00367309 19.66 0.233673L18.63 1.72367C18.54 1.64367 18.42 1.59367 18.29 1.59367C18.17 1.59367 18.07 1.64367 17.99 1.70367L16.97 0.233673C16.78 -0.0363269 16.33 -0.0363269 16.15 0.233673L15.11 1.72367C15.02 1.63367 14.9 1.58367 14.77 1.58367C14.66 1.58367 14.56 1.62367 14.48 1.69367L13.47 0.233673C13.38 0.103673 13.22 0.0136719 13.06 0.0136719C12.9 0.0136719 12.74 0.0936731 12.65 0.233673L11.61 1.74368C11.52 1.65368 11.39 1.59367 11.25 1.59367C11.14 1.59367 11.05 1.63367 10.97 1.69367L9.97 0.243675C9.81 0.0136752 9.50002 -0.0363297 9.27002 0.11367C9.27002 0.11367 9.26 0.123675 9.25 0.133675C9.09 0.0636746 8.92002 0.0336761 8.74002 0.0336761H8.17001C7.45001 0.0336761 6.86002 0.623674 6.86002 1.34367V1.53368H2.5C1.12 1.53368 0 2.65368 0 4.03368V14.8737C0 16.2537 1.12 17.3737 2.5 17.3737H6.86002V17.5637C6.86002 18.2837 7.45001 18.8737 8.17001 18.8737H8.74002C9.46002 18.8737 10.05 18.2837 10.05 17.5637V16.9637L10.89 18.1737C10.98 18.3037 11.14 18.3937 11.3 18.3937C11.46 18.3937 11.62 18.3137 11.71 18.1737L13.05 16.2337L14.39 18.1737C14.48 18.3037 14.64 18.3937 14.8 18.3937C14.96 18.3937 15.12 18.3137 15.21 18.1837L16.55 16.2437L17.9 18.1837C18.09 18.4537 18.53 18.4537 18.72 18.1837L19.57 16.9637V17.5737C19.57 18.2937 20.16 18.8837 20.88 18.8837H21.45C22.17 18.8837 22.76 18.2937 22.76 17.5737V17.3837H23.82C24.65 17.3837 25.32 16.7137 25.32 15.8837V3.04367C25.32 2.21367 24.65 1.54367 23.82 1.54367L23.83 1.52367ZM2.5 16.3637C1.67 16.3637 1 15.6937 1 14.8637V4.02367C1 3.19367 1.67 2.52367 2.5 2.52367H6.86002V16.3637H2.5ZM9.05002 17.5537C9.05002 17.7237 8.91002 17.8637 8.74002 17.8637H8.17001C8.00001 17.8637 7.86002 17.7237 7.86002 17.5537V1.32368C7.86002 1.15368 8.00001 1.01367 8.17001 1.01367H8.74002C8.91002 1.01367 9.05002 1.15368 9.05002 1.32368V17.5537ZM10.05 2.10368L10.74 3.10368V16.1837L10.05 15.1837V2.10368ZM13.05 14.8437C12.89 14.8437 12.73 14.9237 12.64 15.0637L11.74 16.3637V3.27367L13.05 1.38367L14.26 3.13367V16.2137L13.46 15.0537C13.37 14.9237 13.21 14.8337 13.05 14.8337V14.8437ZM16.14 15.0537L15.26 16.3237V3.23367L16.55 1.37367L17.78 3.14368V16.2337L16.96 15.0537C16.77 14.7837 16.32 14.7837 16.14 15.0537ZM18.78 16.3037V3.21368L19.56 2.08367V15.1737L18.78 16.2937V16.3037ZM21.76 17.5437C21.76 17.7137 21.62 17.8537 21.45 17.8537H20.88C20.71 17.8537 20.57 17.7137 20.57 17.5437V1.31367C20.57 1.14367 20.71 1.00367 20.88 1.00367H21.45C21.62 1.00367 21.76 1.14367 21.76 1.31367V17.5437ZM24.32 15.8537C24.32 16.1337 24.1 16.3537 23.82 16.3537H22.76V2.51367H23.82C24.1 2.51367 24.32 2.73367 24.32 3.01367V15.8537Z" fill="#B6B1B1"/>
</svg>
