<svg width="85" height="100" viewBox="0 0 85 100" fill="none" xmlns="http://www.w3.org/2000/svg">
<g clip-path="url(#clip0_2133_919)">
<path d="M84.9392 74.7146C84.9392 73.3885 83.8787 72.3086 82.564 72.3086H72.4721V18.073C72.4721 8.10765 64.4681 0 54.6302 0H17.8418C8.00396 0 0 8.10765 0 18.073V81.983C0 91.3832 7.10911 99.9273 16.2234 99.9273C26.1662 99.9273 67.2134 100 67.2134 100C77.0237 100 85 91.9147 85 81.983L84.9337 74.7202L84.9392 74.7146ZM20.3938 53.4188C20.3938 51.5219 21.9184 49.9776 23.7909 49.9776H43.207C45.1956 49.9776 46.8196 48.3382 46.8196 46.3183C46.8196 44.2983 45.2011 42.6589 43.207 42.6589H30.1543C30.0383 42.6589 29.9223 42.6533 29.8063 42.6421C24.2328 42.4519 19.7531 37.8133 19.7531 32.1229C19.7531 26.4324 24.4207 21.5868 30.1543 21.5868H33.2863V17.0322C33.2863 15.1354 34.8109 13.5911 36.6835 13.5911C38.556 13.5911 40.0806 15.1354 40.0806 17.0322V21.5868H50.2167C52.0893 21.5868 53.6139 23.1312 53.6139 25.028C53.6139 26.9248 52.0893 28.4691 50.2167 28.4691H30.1488C28.1603 28.4691 26.5363 30.1085 26.5363 32.1285C26.5363 34.1484 28.1547 35.7878 30.1488 35.7878H43.2015C48.9352 35.7878 53.6028 40.5159 53.6028 46.3295C53.6028 52.143 48.9352 56.8655 43.2015 56.8655H40.0695V61.4201C40.0695 63.3169 38.545 64.8612 36.6724 64.8612C34.7998 64.8612 33.2753 63.3169 33.2753 61.4201V56.8655H23.7854C21.9129 56.8655 20.3883 55.3212 20.3883 53.4244L20.3938 53.4188ZM67.2134 95.188H28.8673C32.3749 91.8923 34.5734 87.1923 34.5734 81.983V77.2997L80.1888 77.1262L80.2551 81.983C80.2551 89.2681 74.4054 95.188 67.2189 95.188H67.2134Z" fill="#ADA8A8"/>
</g>
<defs>
<clipPath id="clip0_2133_919">
<rect width="85" height="100" fill="white"/>
</clipPath>
</defs>
</svg>
