<svg width="101" height="101" viewBox="0 0 101 101" fill="none" xmlns="http://www.w3.org/2000/svg">
<path d="M98.1982 49.3101C94.0373 44.8549 92.8987 38.3181 95.3034 32.6906C98.0318 26.3052 93.9022 19.0645 87.0739 18.2632C81.0569 17.5566 76.0342 13.2909 74.3027 7.416C72.3373 0.748998 64.5758 -2.11017 58.8369 1.71872C53.7791 5.09235 47.2226 5.09235 42.1648 1.71872C36.4259 -2.11017 28.6643 0.750314 26.6989 7.416C24.9675 13.2909 19.9448 17.5579 13.9277 18.2632C7.10082 19.0645 2.97114 26.3052 5.69826 32.6906C8.10302 38.3181 6.96433 44.8549 2.80345 49.3101C-1.91767 54.3665 -0.483913 62.5993 5.66187 65.7164C11.0771 68.4624 14.3554 74.211 13.9979 80.3319C13.5924 87.2765 19.9188 92.6515 26.6054 91.0396C32.4977 89.6199 38.659 91.8896 42.2714 96.8119C46.3699 102.396 54.6305 102.396 58.729 96.8119C62.3413 91.8909 68.5027 89.6199 74.395 91.0396C81.0816 92.6501 87.408 87.2765 87.0024 80.3319C86.645 74.211 89.9233 68.4637 95.3385 65.7164C101.483 62.5993 102.918 54.3665 98.1969 49.3101H98.1982ZM76.1706 39.4865L46.8989 74.1557C46.3101 74.8531 45.4613 75.2702 44.5552 75.3057C44.5123 75.307 44.4707 75.3083 44.4279 75.3083C43.5673 75.3083 42.7406 74.9636 42.1297 74.3452L25.0039 57.0099C23.7352 55.7257 23.7352 53.6429 25.0039 52.3574C26.2726 51.0719 28.3303 51.0732 29.6003 52.3574L44.2407 67.1769L71.2298 35.2116C72.3958 33.83 74.447 33.6682 75.8119 34.8484C77.1767 36.0287 77.3366 38.105 76.1706 39.4865Z" fill="#ADA8A8"/>
</svg>
