<svg width="15" height="24" viewBox="0 0 15 24" fill="none" xmlns="http://www.w3.org/2000/svg">
<path d="M14.1803 5.96962C14.3403 5.63962 14.3103 5.25962 14.1103 4.94962C13.9103 4.63962 13.5702 4.44962 13.2102 4.44962H12.4803L13.0103 3.66962C13.3303 3.19962 13.3703 2.61962 13.1303 2.10962C12.8803 1.59962 12.4002 1.26962 11.8402 1.22962L6.85025 0.84962C6.29025 0.80962 5.76028 1.05962 5.44028 1.52962C5.12028 1.99962 5.08028 2.57962 5.32028 3.08962L5.98026 4.44962H1.18027C0.810267 4.44962 0.480243 4.63962 0.280243 4.94962C0.0802431 5.25962 0.0602358 5.63962 0.210236 5.96962L0.650238 6.90962C0.680238 6.98962 0.730243 7.04962 0.780243 7.10962C0.780243 7.14962 0.750275 7.18962 0.750275 7.23962V20.9196C0.750275 20.9196 0.770243 21.0096 0.780243 21.0496C0.730243 21.1096 0.680238 21.1796 0.650238 21.2496L0.210236 22.1896C0.0602358 22.5196 0.0802431 22.9096 0.280243 23.2096C0.480243 23.5196 0.810267 23.6996 1.18027 23.6996H13.2102C13.5802 23.6996 13.9103 23.5196 14.1103 23.2096C14.3103 22.8996 14.3303 22.5196 14.1803 22.1896L13.7403 21.2496C13.7103 21.1796 13.6603 21.1096 13.6103 21.0496C13.6103 21.0096 13.6403 20.9696 13.6403 20.9196V7.23962C13.6403 7.23962 13.6203 7.15962 13.6103 7.11962C13.6603 7.05962 13.7103 6.98962 13.7403 6.91962L14.1803 5.97962V5.96962ZM6.22025 2.65962C6.09025 2.39962 6.21028 2.17962 6.26028 2.09962C6.32028 2.01962 6.47023 1.82962 6.77023 1.84962L11.7603 2.22962C12.0503 2.24962 12.1802 2.45962 12.2202 2.53962C12.2602 2.62962 12.3403 2.85962 12.1803 3.09962L11.2603 4.44962H7.08023L6.21024 2.65962H6.22025ZM1.18027 5.44962L13.2702 5.47962C13.2702 5.47962 13.2702 5.52962 13.2702 5.53962L12.7702 6.51962H12.3302L1.55026 6.47962L1.11026 5.53962L1.17026 5.44962H1.18027ZM1.76028 12.6896H4.02023C3.83023 13.1096 3.73026 13.5796 3.73026 14.0696C3.73026 14.3196 3.76027 14.5696 3.81027 14.8096C3.81027 14.8496 3.83024 14.8796 3.84024 14.9096C3.89024 15.1096 3.95024 15.2996 4.03024 15.4796C4.03024 15.4896 4.03025 15.5096 4.04025 15.5196H1.75027V12.6796L1.76028 12.6896ZM9.19028 12.6196C9.19028 12.6196 9.26025 12.7096 9.29025 12.7596C9.34025 12.8396 9.39027 12.9296 9.43027 13.0196C9.45027 13.0696 9.48026 13.1096 9.49026 13.1596C9.53026 13.2596 9.56024 13.3696 9.59024 13.4696C9.60024 13.5096 9.62027 13.5596 9.62027 13.5996C9.65027 13.7496 9.67026 13.8996 9.67026 14.0596C9.67026 14.2196 9.65027 14.3796 9.62027 14.5296C9.62027 14.5796 9.59023 14.6196 9.58023 14.6696C9.55023 14.7696 9.52026 14.8796 9.48026 14.9796C9.46026 15.0296 9.43025 15.0796 9.41025 15.1296C9.37025 15.2196 9.32023 15.3096 9.27023 15.3896C9.24023 15.4396 9.20025 15.4896 9.16025 15.5396C8.71025 16.1396 8.00028 16.5296 7.19028 16.5296C6.38028 16.5296 5.70027 16.1496 5.25027 15.5696C5.20027 15.5096 5.15026 15.4396 5.11026 15.3796C5.07026 15.3196 5.04027 15.2496 5.00027 15.1796C4.96027 15.1096 4.93024 15.0396 4.90024 14.9696C4.87024 14.8996 4.86024 14.8296 4.84024 14.7596C4.82024 14.6796 4.79023 14.5996 4.77023 14.5196C4.76023 14.4496 4.76027 14.3896 4.75027 14.3196C4.75027 14.2396 4.73026 14.1496 4.73026 14.0696C4.73026 14.0096 4.74027 13.9496 4.75027 13.8896C4.75027 13.7996 4.76024 13.7096 4.78024 13.6196C4.79024 13.5496 4.82023 13.4796 4.83023 13.4096C4.85023 13.3296 4.87024 13.2496 4.90024 13.1796C4.93024 13.1096 4.96026 13.0496 4.99026 12.9896C5.02026 12.9196 5.06025 12.8496 5.10025 12.7796C5.14025 12.7196 5.18025 12.6596 5.22025 12.5996C5.67025 11.9996 6.38028 11.5996 7.19028 11.5996C8.00028 11.5996 8.73027 11.9996 9.18027 12.6196H9.19028ZM4.75027 16.5296C5.38027 17.1596 6.25029 17.5496 7.20029 17.5496C8.15029 17.5496 9.02024 17.1596 9.65024 16.5296H12.6403V20.6196H1.76028V16.5296H4.75027ZM12.6403 15.5296H10.3503C10.3503 15.5296 10.3603 15.4896 10.3703 15.4696C10.4303 15.3296 10.4702 15.1796 10.5202 15.0296C10.5402 14.9496 10.5802 14.8796 10.5902 14.7996C10.6402 14.5696 10.6603 14.3396 10.6703 14.0996C10.6703 14.0996 10.6703 14.0896 10.6703 14.0796C10.6703 13.5896 10.5703 13.1296 10.3903 12.7096C10.3903 12.7096 10.3903 12.7096 10.3903 12.6996H12.6502V15.5396L12.6403 15.5296ZM9.71024 11.6896C9.08024 11.0196 8.19029 10.5996 7.20029 10.5996C6.21029 10.5996 5.32028 11.0196 4.69028 11.6896H1.76028V7.51962H12.6403V11.6896H9.71024ZM13.2102 22.6996H1.18027L1.12027 22.5996L1.62027 21.6196H1.90024L12.8402 21.6596L13.2702 22.6696C13.2702 22.6696 13.2202 22.6996 13.2102 22.6996Z" fill="#B6B1B1"/>
</svg>
