<svg width="38" height="24" viewBox="0 0 38 24" fill="none" xmlns="http://www.w3.org/2000/svg">
<path d="M37.7179 19.47C37.4479 17.98 36.9479 16.58 36.2279 15.22C37.3379 14.21 37.7579 12.62 37.2379 11.18C36.6679 9.6 35.1179 8.61 33.4679 8.73C32.5779 7.21 30.6779 6.5 28.9879 7.12C28.9079 7.15 28.8379 7.18 28.7679 7.21C27.8279 6.64 26.8379 6.17 25.8279 5.78C25.8079 3.63 24.0579 1.89 21.8979 1.89C21.5079 1.89 21.1479 1.94 20.7979 2.05C20.1079 0.79 18.8079 0 17.3479 0C15.1779 0 13.4179 1.77 13.4179 3.94C13.4179 4.39 13.5079 4.84 13.6579 5.27C12.6579 5.56 11.6879 5.92 10.7579 6.37C10.4979 6.16 10.2179 5.98 9.89789 5.85C8.19789 5.16 6.30789 5.78 5.34789 7.28C3.71789 7.11 2.12789 8.04 1.48789 9.59C0.877893 11.08 1.30789 12.78 2.49789 13.81C1.31789 15.63 0.567894 17.46 0.197893 19.54C0.117893 20.02 0.0578935 20.51 0.00789348 21.02C-0.0421065 21.56 0.147893 22.1 0.507894 22.5C0.877894 22.91 1.40789 23.14 1.96789 23.14H35.9379C36.4879 23.14 37.0279 22.91 37.3979 22.5C37.7679 22.1 37.9479 21.56 37.8979 21.02C37.8579 20.48 37.7879 19.96 37.6979 19.47H37.7179ZM32.7279 9.48L32.8879 9.83L33.2679 9.77C34.5679 9.55 35.8479 10.29 36.2979 11.53C36.6579 12.51 36.4179 13.59 35.7279 14.33C35.5579 14.04 35.3679 13.76 35.1779 13.48C34.8179 12.94 34.4279 12.41 34.0079 11.87C33.6779 11.45 33.3379 11.05 32.9779 10.66C32.8679 10.54 32.7379 10.42 32.6279 10.3C32.3779 10.04 32.1279 9.79 31.8579 9.54C31.7179 9.41 31.5679 9.28 31.4179 9.15C31.1679 8.93 30.9079 8.72 30.6479 8.51C30.4879 8.39 30.3279 8.27 30.1679 8.15C30.0679 8.08 29.9779 8 29.8779 7.93C31.0479 7.77 32.2179 8.38 32.7179 9.48H32.7279ZM17.3479 1.01C18.5379 1.01 19.6379 1.76 20.0779 2.87L20.2779 3.36L20.7579 3.14C21.0979 2.98 21.4879 2.9 21.9079 2.9C23.3879 2.9 24.6079 3.99 24.8179 5.41C24.7679 5.39 24.7179 5.38 24.6679 5.36C24.4079 5.28 24.1579 5.2 23.9079 5.14C23.3679 4.99 22.8279 4.88 22.2779 4.79C22.1479 4.77 22.0179 4.75 21.8879 4.73C21.3379 4.65 20.7779 4.58 20.2179 4.54C20.1979 4.54 20.1879 4.54 20.1679 4.54C19.7779 4.52 19.3879 4.5 18.9979 4.5C18.8479 4.5 18.6979 4.51 18.5479 4.52C18.3979 4.52 18.2579 4.52 18.1079 4.53C17.5479 4.56 16.9879 4.6 16.4279 4.67C16.0979 4.71 15.7779 4.77 15.4479 4.83C15.3379 4.85 15.2179 4.88 15.1079 4.9C14.9479 4.93 14.7979 4.96 14.6379 5C14.5079 4.66 14.4379 4.31 14.4379 3.95C14.4379 2.33 15.7479 1.01 17.3679 1.01H17.3479ZM2.41789 9.98C2.84789 8.93 3.86789 8.27 4.95789 8.27C5.13789 8.27 5.32789 8.29 5.50789 8.33L5.87789 8.41L6.04789 8.07C6.69789 6.8 8.18789 6.25 9.50789 6.79C9.58789 6.82 9.65789 6.85 9.72789 6.89C9.55789 6.98 9.39789 7.09 9.23789 7.19C9.02789 7.31 8.82789 7.43 8.62789 7.56C8.32789 7.75 8.04789 7.96 7.75789 8.16C7.57789 8.29 7.38789 8.42 7.20789 8.56C6.90789 8.8 6.60789 9.06 6.32789 9.31C6.18789 9.44 6.03789 9.56 5.89789 9.69C5.47789 10.09 5.06789 10.51 4.68789 10.95C4.34789 11.34 4.03789 11.71 3.74789 12.07C3.64789 12.19 3.56789 12.31 3.47789 12.43C3.33789 12.61 3.18789 12.8 3.05789 12.98C2.25789 12.22 1.98789 11.03 2.41789 9.98ZM36.9179 21.11C36.9379 21.37 36.8579 21.63 36.6679 21.83C36.4879 22.03 36.2179 22.15 35.9479 22.15H1.98789C1.71789 22.15 1.44789 22.03 1.26789 21.83C1.08789 21.63 0.997893 21.38 1.01789 21.11C1.05789 20.63 1.11789 20.16 1.19789 19.72C1.56789 17.64 2.31789 15.82 3.58789 13.98L3.66789 13.86C4.16789 13.15 4.74789 12.42 5.44789 11.62C6.48789 10.43 7.67789 9.42 8.96789 8.55C9.58789 8.13 10.2279 7.74 10.9079 7.41C12.0379 6.84 13.2279 6.39 14.5479 6.05C15.1979 5.89 15.8679 5.76 16.5379 5.67C17.0679 5.6 17.5979 5.56 18.1279 5.53C18.2579 5.53 18.3979 5.52 18.5279 5.52C19.0479 5.51 19.5679 5.51 20.0879 5.54C20.0879 5.54 20.1079 5.54 20.1179 5.54C20.6479 5.57 21.1779 5.64 21.7079 5.72C21.8279 5.74 21.9479 5.76 22.0679 5.78C22.5979 5.87 23.1179 5.98 23.6279 6.12C23.8579 6.18 24.0879 6.24 24.3279 6.32C24.5979 6.4 24.8579 6.5 25.1279 6.6H25.1379C26.2879 7.02 27.4079 7.56 28.4579 8.21C30.2779 9.34 31.8679 10.78 33.1979 12.49C33.5979 13.02 33.9879 13.53 34.3279 14.05C34.6179 14.48 34.8979 14.92 35.1379 15.36C35.9179 16.74 36.4379 18.15 36.7079 19.67C36.7879 20.13 36.8579 20.62 36.8979 21.12L36.9179 21.11Z" fill="#736E6E"/>
</svg>
