<svg width="38" height="24" viewBox="0 0 38 24" fill="none" xmlns="http://www.w3.org/2000/svg">
<path d="M37.7179 20.2805C37.4479 18.7905 36.9479 17.3905 36.2279 16.0305C37.3379 15.0205 37.7579 13.4305 37.2379 11.9905C36.6679 10.4105 35.1179 9.42055 33.4679 9.54055C32.5779 8.02055 30.6779 7.31055 28.9879 7.93055C28.9079 7.96055 28.8379 7.99055 28.7679 8.02055C27.8279 7.45055 26.8379 6.98055 25.8279 6.59055C25.8079 4.44055 24.0579 2.70055 21.8979 2.70055C21.5079 2.70055 21.1479 2.75055 20.7979 2.86055C20.1079 1.60055 18.8079 0.810547 17.3479 0.810547C15.1779 0.810547 13.4179 2.58055 13.4179 4.75055C13.4179 5.20055 13.5079 5.65055 13.6579 6.08055C12.6579 6.37055 11.6879 6.73055 10.7579 7.18055C10.4979 6.97055 10.2179 6.79055 9.89789 6.66055C8.19789 5.97055 6.30789 6.59055 5.34789 8.09055C3.71789 7.92055 2.12789 8.85055 1.48789 10.4005C0.877893 11.8905 1.30789 13.5905 2.49789 14.6205C1.31789 16.4405 0.567894 18.2705 0.197893 20.3505C0.117893 20.8305 0.0578935 21.3205 0.00789348 21.8305C-0.0421065 22.3705 0.147893 22.9105 0.507894 23.3105C0.877894 23.7205 1.40789 23.9505 1.96789 23.9505H35.9379C36.4879 23.9505 37.0279 23.7205 37.3979 23.3105C37.7679 22.9105 37.9479 22.3705 37.8979 21.8305C37.8579 21.2905 37.7879 20.7705 37.6979 20.2805H37.7179ZM32.7279 10.2905L32.8879 10.6405L33.2679 10.5805C34.5679 10.3605 35.8479 11.1005 36.2979 12.3405C36.6579 13.3205 36.4179 14.4005 35.7279 15.1405C35.5579 14.8505 35.3679 14.5705 35.1779 14.2905C34.8179 13.7505 34.4279 13.2205 34.0079 12.6805C33.6779 12.2605 33.3379 11.8605 32.9779 11.4705C32.8679 11.3505 32.7379 11.2305 32.6279 11.1105C32.3779 10.8505 32.1279 10.6005 31.8579 10.3505C31.7179 10.2205 31.5679 10.0905 31.4179 9.96055C31.1679 9.74055 30.9079 9.53055 30.6479 9.32055C30.4879 9.20055 30.3279 9.08055 30.1679 8.96055C30.0679 8.89055 29.9779 8.81055 29.8779 8.74055C31.0479 8.58055 32.2179 9.19055 32.7179 10.2905H32.7279ZM17.3479 1.82055C18.5379 1.82055 19.6379 2.57055 20.0779 3.68055L20.2779 4.17055L20.7579 3.95055C21.0979 3.79055 21.4879 3.71055 21.9079 3.71055C23.3879 3.71055 24.6079 4.80055 24.8179 6.22055C24.7679 6.20055 24.7179 6.19055 24.6679 6.17055C24.4079 6.09055 24.1579 6.01055 23.9079 5.95055C23.3679 5.80055 22.8279 5.69055 22.2779 5.60055C22.1479 5.58055 22.0179 5.56055 21.8879 5.54055C21.3379 5.46055 20.7779 5.39055 20.2179 5.35055C20.1979 5.35055 20.1879 5.35055 20.1679 5.35055C19.7779 5.33055 19.3879 5.31055 18.9979 5.31055C18.8479 5.31055 18.6979 5.32055 18.5479 5.33055C18.3979 5.33055 18.2579 5.33055 18.1079 5.34055C17.5479 5.37055 16.9879 5.41055 16.4279 5.48055C16.0979 5.52055 15.7779 5.58055 15.4479 5.64055C15.3379 5.66055 15.2179 5.69055 15.1079 5.71055C14.9479 5.74055 14.7979 5.77055 14.6379 5.81055C14.5079 5.47055 14.4379 5.12055 14.4379 4.76055C14.4379 3.14055 15.7479 1.82055 17.3679 1.82055H17.3479ZM2.41789 10.7905C2.84789 9.74055 3.86789 9.08055 4.95789 9.08055C5.13789 9.08055 5.32789 9.10055 5.50789 9.14055L5.87789 9.22055L6.04789 8.88055C6.69789 7.61055 8.18789 7.06055 9.50789 7.60055C9.58789 7.63055 9.65789 7.66055 9.72789 7.70055C9.55789 7.79055 9.39789 7.90055 9.23789 8.00055C9.02789 8.12055 8.82789 8.24055 8.62789 8.37055C8.32789 8.56055 8.04789 8.77055 7.75789 8.97055C7.57789 9.10055 7.38789 9.23055 7.20789 9.37055C6.90789 9.61055 6.60789 9.87055 6.32789 10.1205C6.18789 10.2505 6.03789 10.3705 5.89789 10.5005C5.47789 10.9005 5.06789 11.3205 4.68789 11.7605C4.34789 12.1505 4.03789 12.5205 3.74789 12.8805C3.64789 13.0005 3.56789 13.1205 3.47789 13.2405C3.33789 13.4205 3.18789 13.6105 3.05789 13.7905C2.25789 13.0305 1.98789 11.8405 2.41789 10.7905ZM36.9179 21.9205C36.9379 22.1805 36.8579 22.4405 36.6679 22.6405C36.4879 22.8405 36.2179 22.9605 35.9479 22.9605H1.98789C1.71789 22.9605 1.44789 22.8405 1.26789 22.6405C1.08789 22.4405 0.997893 22.1905 1.01789 21.9205C1.05789 21.4405 1.11789 20.9705 1.19789 20.5305C1.56789 18.4505 2.31789 16.6305 3.58789 14.7905L3.66789 14.6705C4.16789 13.9605 4.74789 13.2305 5.44789 12.4305C6.48789 11.2405 7.67789 10.2305 8.96789 9.36055C9.58789 8.94055 10.2279 8.55055 10.9079 8.22055C12.0379 7.65055 13.2279 7.20055 14.5479 6.86055C15.1979 6.70055 15.8679 6.57055 16.5379 6.48055C17.0679 6.41055 17.5979 6.37055 18.1279 6.34055C18.2579 6.34055 18.3979 6.33055 18.5279 6.33055C19.0479 6.32055 19.5679 6.32055 20.0879 6.35055C20.0879 6.35055 20.1079 6.35055 20.1179 6.35055C20.6479 6.38055 21.1779 6.45055 21.7079 6.53055C21.8279 6.55055 21.9479 6.57055 22.0679 6.59055C22.5979 6.68055 23.1179 6.79055 23.6279 6.93055C23.8579 6.99055 24.0879 7.05055 24.3279 7.13055C24.5979 7.21055 24.8579 7.31055 25.1279 7.41055H25.1379C26.2879 7.83055 27.4079 8.37055 28.4579 9.02055C30.2779 10.1505 31.8679 11.5905 33.1979 13.3005C33.5979 13.8305 33.9879 14.3405 34.3279 14.8605C34.6179 15.2905 34.8979 15.7305 35.1379 16.1705C35.9179 17.5505 36.4379 18.9605 36.7079 20.4805C36.7879 20.9405 36.8579 21.4305 36.8979 21.9305L36.9179 21.9205Z" fill="#736E6E"/>
</svg>
