<svg width="23" height="23" viewBox="0 0 23 23" fill="none" xmlns="http://www.w3.org/2000/svg">
<path d="M11.4987 8.62924C12.0022 8.62924 12.5007 8.7284 12.9659 8.92107C13.431 9.11374 13.8536 9.39614 14.2096 9.75214C14.5656 10.1081 14.848 10.5308 15.0407 10.9959C15.2334 11.4611 15.3325 11.9596 15.3325 12.4631C15.3325 12.9665 15.2334 13.465 15.0407 13.9302C14.848 14.3953 14.5656 14.818 14.2096 15.174C13.8536 15.53 13.431 15.8124 12.9659 16.005C12.5007 16.1977 12.0022 16.2969 11.4987 16.2969C10.4819 16.2969 9.5068 15.8929 8.78782 15.174C8.06884 14.455 7.66492 13.4798 7.66492 12.4631C7.66492 11.4463 8.06884 10.4711 8.78782 9.75214C9.5068 9.03316 10.4819 8.62924 11.4987 8.62924ZM11.4987 10.0667C10.8632 10.0667 10.2537 10.3192 9.80428 10.7686C9.35489 11.218 9.10242 11.8275 9.10242 12.4631C9.10242 13.0986 9.35489 13.7081 9.80428 14.1575C10.2537 14.6069 10.8632 14.8594 11.4987 14.8594C12.1343 14.8594 12.7438 14.6069 13.1932 14.1575C13.6426 13.7081 13.895 13.0986 13.895 12.4631C13.895 11.8275 13.6426 11.218 13.1932 10.7686C12.7438 10.3192 12.1343 10.0667 11.4987 10.0667ZM11.4987 5.27124C15.9205 5.27124 19.7356 8.28999 20.795 12.5206C20.8204 12.6129 20.827 12.7094 20.8145 12.8044C20.802 12.8994 20.7706 12.9909 20.7223 13.0736C20.6739 13.1562 20.6095 13.2284 20.5328 13.2859C20.4562 13.3433 20.3688 13.3848 20.2759 13.408C20.1829 13.4312 20.0863 13.4356 19.9916 13.4209C19.897 13.4062 19.8062 13.3727 19.7247 13.3225C19.6431 13.2722 19.5725 13.2061 19.5168 13.1282C19.4612 13.0502 19.4217 12.9619 19.4007 12.8684C18.9559 11.1093 17.9368 9.54893 16.5049 8.43447C15.0731 7.32 13.3102 6.71519 11.4958 6.71585C9.6813 6.71651 7.91893 7.3226 6.48787 8.43811C5.0568 9.55362 4.03888 11.1147 3.59536 12.8742C3.54794 13.0579 3.4298 13.2154 3.26671 13.3124C3.10362 13.4093 2.9088 13.4379 2.72476 13.3917C2.54071 13.3456 2.38236 13.2286 2.28424 13.0662C2.18612 12.9038 2.15619 12.7092 2.20098 12.5249C2.72092 10.4526 3.91815 8.61349 5.60263 7.29935C7.2871 5.98521 9.36228 5.2714 11.4987 5.27124Z" fill="#736E6E"/>
</svg>
